<svg xmlns="http://www.w3.org/2000/svg" viewBox="0 0 67.41 44.78"><defs><style>.b1e64a1c-b424-496c-98f4-f52ec7f87bc8{fill:#f8b40c;}.f9934f66-8bf1-4d12-b4ed-aa810160ba60{fill:#fff;}</style></defs><title>HOOBS_SETUP_SD_Adapter</title><g id="ede8b2c7-311d-4a68-9cb7-ce4889a28a65" data-name="Ebene 2"><g id="b1375796-e059-447d-adb6-21d24a805818" data-name="Ebene 1"><path d="M27.79,0a1.28,1.28,0,0,1,.82.33c1.51,1.51,3,3.06,4.47,4.57a2.68,2.68,0,0,1,.53,2c0,.89,0,1.8,0,2.7,0,1.39,0,2.78,0,4.23l-.91.06c0,.67,0,1.32,0,2a.43.43,0,0,0,.33.28c.53,0,.57.35.57.78q0,5.76,0,11.53c0,4.36,0,8.73,0,13.1,0,.77,0,1.32-.08,2.09s-.4,1-1.15,1.06c-2.1,0-15,.08-15,.08h0c-2.69,0-4.6,0-7.29,0s-5.9,0-8.44,0c-1.13,0-1.6-.38-1.63-1.5,0-1.82,0-3.53,0-5.35Q0,29.48.07,21c0-.53.15-1,.8-1.2.09,0,.18-.22.18-.34,0-1.46,0-2.93,0-4.39,0-.1-.07-.28-.12-.29-.72-.15-.72-.68-.74-1.25S.05,12.45.05,11.89a2.48,2.48,0,0,1,.28-.77L1,11v-.11a.61.61,0,0,0-.18-.09c-.76-.22-.76-.22-.76-1,0-2.78,0-5.55,0-8.33C0,.38.41,0,1.48,0"/><path d="M52.24,19H50.61a.3.3,0,0,0-.17.08c-.39.29-.78.58-1.18.86a.62.62,0,0,1-.32.11h-9.1c-.4,0-.46-.06-.46-.46V14.86c0-4.76,0-9.53,0-14.3,0-.43.17-.51.53-.51H58.58c2.71,0,5.42,0,8.13,0a.63.63,0,0,1,.64.34.79.79,0,0,1,.05.3q0,4.53,0,9.06c0,2.34,0,4.69,0,7a1.42,1.42,0,0,1-.24.67s-.12.06-.18.07c-.22,0-.44,0-.67,0H58.78a.58.58,0,0,0-.37.13c-.92.78-1.85,1.55-2.78,2.32a.5.5,0,0,1-.31.12l-2.59,0a.51.51,0,0,1-.49-.5C52.23,19.35,52.24,19.18,52.24,19Z"/><path class="b1e64a1c-b424-496c-98f4-f52ec7f87bc8" d="M50.25,2.94h-5.5A1.65,1.65,0,0,0,43.11,4.6v5.56a1.66,1.66,0,0,0,1.64,1.66h5.5a1.65,1.65,0,0,0,1.64-1.66V4.6A1.65,1.65,0,0,0,50.25,2.94Zm.23,4.29a.22.22,0,0,1-.2.18.19.19,0,0,1-.23-.1,1.67,1.67,0,0,0-.46-.56.66.66,0,0,1-.22-.53,2.77,2.77,0,0,0,0-.41h0V5.27c0-.17-.11-.2-.24-.19s-.29,0-.3.18,0,.33,0,.49,0,.13,0,.16-.09,0-.13-.09l-1.08-1c-.11-.11-.19-.1-.3,0L45,7.17c-.1.1-.12.19,0,.28l.07.08c.15.15.18.14.34,0,.52-.48,1-1,1.5-1.48l.32-.3a.41.41,0,0,1,.63,0c.22.2.42.42.64.63l1.18,1.18a.45.45,0,0,1,0,.74c-.41.41-.56.41-1,0L47.6,7.25a.18.18,0,0,0-.3,0c-.38.38-.75.77-1.14,1.14a.17.17,0,0,0,0,.28.57.57,0,0,1,.11.11c.09.1.17.1.27,0l.61-.59a.43.43,0,0,1,.65,0c.22.22.45.44.66.66a.43.43,0,0,1,0,.63L48,9.94a.8.8,0,0,0-.25.32.19.19,0,0,1-.23.13.2.2,0,0,1-.2-.17.24.24,0,0,1,.12-.28,3.32,3.32,0,0,0,.76-.69c.07-.06.07-.12,0-.19l-.61-.61a.15.15,0,0,0-.23,0l-.61.59a.44.44,0,0,1-.65,0l-.16-.15a.48.48,0,0,1,0-.77L47.09,7a.45.45,0,0,1,.72,0L49,8.14c.17.16.19.16.38,0s.17-.2,0-.36L47.64,6c-.1-.1-.18-.11-.27,0l-.8.78-1.06,1a.43.43,0,0,1-.63,0c-.42-.38-.52-.58,0-1,.76-.73,1.49-1.49,2.23-2.24a.46.46,0,0,1,.76,0l.55.53c.07.07.13.12.16,0a.38.38,0,0,1,.33-.28l.2,0c.47,0,.64.15.64.63v.85a.32.32,0,0,0,.11.29,2.25,2.25,0,0,0,.55.47A.21.21,0,0,1,50.48,7.23Z"/><path class="b1e64a1c-b424-496c-98f4-f52ec7f87bc8" d="M44.6,12.82v1.63h-.38v-.67h-.74v.67h-.37V12.82h.37v.64h.74v-.64Zm.28.81a.89.89,0,1,1,.89.84A.84.84,0,0,1,44.88,13.63Zm1.4,0a.51.51,0,1,0-.51.52A.49.49,0,0,0,46.28,13.63Zm.56,0a.89.89,0,1,1,.89.84A.83.83,0,0,1,46.84,13.63Zm1.39,0a.49.49,0,0,0-.5-.51.52.52,0,0,0,0,1A.49.49,0,0,0,48.23,13.63Zm2.16.37c0,.28-.23.45-.65.45H48.9V12.82h.79c.41,0,.62.17.62.43a.39.39,0,0,1-.22.35A.41.41,0,0,1,50.39,14Zm-1.12-.89v.38h.37c.19,0,.29-.07.29-.19s-.1-.19-.29-.19ZM50,14c0-.13-.11-.2-.3-.2h-.44v.4h.44C49.9,14.16,50,14.1,50,14Zm.54.33.12-.29a1,1,0,0,0,.54.17c.22,0,.31-.07.31-.17,0-.3-.94-.1-.94-.7,0-.28.22-.5.68-.5a1.07,1.07,0,0,1,.57.14l-.12.28a1,1,0,0,0-.45-.12c-.22,0-.31.08-.31.18,0,.3.94.09.94.69,0,.27-.22.5-.68.5A1.15,1.15,0,0,1,50.55,14.29Z"/><path class="b1e64a1c-b424-496c-98f4-f52ec7f87bc8" d="M22.08,9.31H10.24a3.56,3.56,0,0,0-3.53,3.57v12a3.56,3.56,0,0,0,3.53,3.57H22.08a3.56,3.56,0,0,0,3.53-3.57v-12A3.56,3.56,0,0,0,22.08,9.31Zm.48,9.23a.5.5,0,0,1-.42.4.42.42,0,0,1-.5-.22,3.31,3.31,0,0,0-1-1.2,1.34,1.34,0,0,1-.46-1.14c0-.29,0-.59,0-.88h0V14.32c0-.35-.22-.42-.51-.41s-.62-.05-.64.39,0,.71,0,1.06c0,.12.06.29-.06.34s-.19-.1-.28-.18c-.77-.74-1.55-1.47-2.32-2.22a.38.38,0,0,0-.64,0q-2.52,2.56-5.06,5.11c-.23.22-.25.4,0,.6l.16.16c.33.33.38.32.74,0,1.1-1,2.14-2.12,3.22-3.18.22-.23.46-.43.69-.65a.91.91,0,0,1,1.36,0c.46.45.9.92,1.36,1.37l2.54,2.52a1,1,0,0,1,0,1.61c-.87.88-1.2.88-2.08,0s-1.53-1.49-2.29-2.25c-.24-.24-.41-.21-.64,0-.8.82-1.62,1.65-2.44,2.46a.35.35,0,0,0,0,.59c.08.07.15.15.23.23s.37.22.58,0c.43-.43.88-.85,1.31-1.27a.94.94,0,0,1,1.4,0L18.23,22a1,1,0,0,1,0,1.36c-.32.34-.66.67-1,1a2,2,0,0,0-.53.69.44.44,0,0,1-.5.29.47.47,0,0,1-.43-.38.49.49,0,0,1,.26-.59,8.26,8.26,0,0,0,1.64-1.48.27.27,0,0,0,0-.42l-1.32-1.32c-.18-.17-.34-.13-.5,0l-1.32,1.26a.94.94,0,0,1-1.39.07c-.12-.11-.23-.22-.34-.34a1,1,0,0,1,0-1.64c.82-.83,1.64-1.67,2.47-2.49a1,1,0,0,1,1.55,0l2.5,2.46c.36.34.4.34.82-.09s.36-.42,0-.77c-1.24-1.23-2.48-2.45-3.7-3.69-.21-.21-.38-.22-.58,0l-1.72,1.7-2.27,2.22a.92.92,0,0,1-1.36,0c-.9-.81-1.13-1.25-.08-2.26,1.62-1.57,3.19-3.21,4.79-4.82a1,1,0,0,1,1.63,0c.39.38.8.75,1.19,1.14.16.15.27.25.35-.08a.8.8,0,0,1,.71-.6,2,2,0,0,1,.43-.05c1,0,1.36.32,1.36,1.34,0,.61,0,1.22,0,1.84a.73.73,0,0,0,.25.61,4.75,4.75,0,0,0,1.18,1A.44.44,0,0,1,22.56,18.54Z"/><path class="b1e64a1c-b424-496c-98f4-f52ec7f87bc8" d="M9.91,30.57v3.5H9.1V32.63H7.52v1.44H6.71v-3.5h.81V32H9.1V30.57Zm.61,1.75a1.81,1.81,0,0,1,1.91-1.81,1.81,1.81,0,1,1,0,3.62A1.81,1.81,0,0,1,10.52,32.32Zm3,0a1.09,1.09,0,1,0-1.09,1.12A1.06,1.06,0,0,0,13.52,32.32Zm1.21,0a1.81,1.81,0,0,1,1.91-1.81,1.81,1.81,0,1,1,0,3.62A1.81,1.81,0,0,1,14.73,32.32Zm3,0a1.1,1.1,0,1,0-1.1,1.12A1.07,1.07,0,0,0,17.74,32.32Zm4.63.79c0,.61-.48,1-1.4,1H19.16v-3.5h1.71c.87,0,1.32.37,1.32.91a.85.85,0,0,1-.46.77A.86.86,0,0,1,22.37,33.11ZM20,31.18V32h.8c.39,0,.61-.14.61-.42s-.22-.41-.61-.41ZM21.55,33c0-.3-.22-.44-.64-.44H20v.87h.94C21.33,33.46,21.55,33.33,21.55,33Zm1.16.69.27-.61a2,2,0,0,0,1.15.37c.48,0,.68-.16.68-.38,0-.65-2-.2-2-1.5,0-.59.47-1.09,1.47-1.09a2.39,2.39,0,0,1,1.21.31l-.25.62a2,2,0,0,0-1-.28c-.48,0-.66.18-.66.4,0,.65,2,.2,2,1.48,0,.59-.49,1.09-1.48,1.09A2.44,2.44,0,0,1,22.71,33.72Z"/><path class="f9934f66-8bf1-4d12-b4ed-aa810160ba60" d="M55.9,10a.46.46,0,0,1,.32-.43h0A.42.42,0,0,1,56,9.19a.46.46,0,0,1,.5-.43.43.43,0,0,1,.48.4.41.41,0,0,1-.27.38h0A.45.45,0,0,1,57,10a.51.51,0,0,1-.56.47A.48.48,0,0,1,55.9,10Zm.87,0c0-.2-.13-.29-.35-.35a.35.35,0,0,0-.29.33.3.3,0,0,0,.32.31A.29.29,0,0,0,56.77,10Zm-.6-.81c0,.16.12.25.31.3a.33.33,0,0,0,.25-.3.25.25,0,0,0-.28-.26A.26.26,0,0,0,56.17,9.18Z"/><path class="f9934f66-8bf1-4d12-b4ed-aa810160ba60" d="M58.56,10.34a1.75,1.75,0,0,1-.52.09.91.91,0,0,1-.63-.22.9.9,0,0,1-.23-.63.84.84,0,0,1,.91-.87,1.19,1.19,0,0,1,.42.08L58.45,9a.87.87,0,0,0-.37-.07.62.62,0,0,0-.67.67.61.61,0,0,0,.64.68.59.59,0,0,0,.29-.05V9.7H58V9.53h.56Z"/><path class="f9934f66-8bf1-4d12-b4ed-aa810160ba60" d="M58.89,8.75a2.06,2.06,0,0,1,.39,0,.7.7,0,0,1,.46.12.35.35,0,0,1,.14.3.4.4,0,0,1-.28.37h0a.44.44,0,0,1,.2.76.81.81,0,0,1-.58.16l-.33,0Zm.21.69h.2c.23,0,.36-.12.36-.28s-.15-.27-.36-.27h-.2Zm0,.81h.19c.22,0,.43-.09.43-.33s-.2-.32-.44-.32H59.1Z"/><path class="f9934f66-8bf1-4d12-b4ed-aa810160ba60" d="M6.11,39.41l-.39,1.18H5.21l1.28-3.76h.59l1.28,3.76H7.84l-.4-1.18ZM7.34,39,7,37.94c-.08-.24-.14-.46-.2-.68h0a6.34,6.34,0,0,1-.19.68L6.21,39Z"/><path class="f9934f66-8bf1-4d12-b4ed-aa810160ba60" d="M8.91,36.88a6.34,6.34,0,0,1,1-.08,2.11,2.11,0,0,1,1.52.47A1.72,1.72,0,0,1,12,38.62a2,2,0,0,1-.54,1.46,2.31,2.31,0,0,1-1.66.54c-.34,0-.63,0-.88,0ZM9.4,40.2a2.33,2.33,0,0,0,.49,0,1.45,1.45,0,0,0,1.6-1.59A1.35,1.35,0,0,0,10,37.19a2.48,2.48,0,0,0-.56.05Z"/><path class="f9934f66-8bf1-4d12-b4ed-aa810160ba60" d="M13.15,39.41l-.39,1.18h-.5l1.28-3.76h.58l1.29,3.76h-.52l-.4-1.18ZM14.39,39,14,37.94c-.09-.24-.14-.46-.2-.68h0c-.05.22-.12.45-.19.68L13.25,39Z"/><path class="f9934f66-8bf1-4d12-b4ed-aa810160ba60" d="M16,36.87a5.51,5.51,0,0,1,.93-.07,1.53,1.53,0,0,1,1.05.31,1,1,0,0,1,.33.79,1.09,1.09,0,0,1-.29.8,1.52,1.52,0,0,1-1.15.42,1.61,1.61,0,0,1-.39,0v1.51H16Zm.48,1.82a2.29,2.29,0,0,0,.41,0c.58,0,.94-.28.94-.8s-.35-.73-.89-.73a2.46,2.46,0,0,0-.46,0Z"/><path class="f9934f66-8bf1-4d12-b4ed-aa810160ba60" d="M19.64,37.24H18.5v-.41h2.78v.41H20.13v3.35h-.49Z"/><path class="f9934f66-8bf1-4d12-b4ed-aa810160ba60" d="M23.64,38.83H22.18v1.35h1.63v.41H21.7V36.83h2v.41H22.18v1.18h1.46Z"/><path class="f9934f66-8bf1-4d12-b4ed-aa810160ba60" d="M24.44,36.88a5,5,0,0,1,.93-.08,1.56,1.56,0,0,1,1.09.31.91.91,0,0,1,.29.71,1,1,0,0,1-.7,1v0a.94.94,0,0,1,.55.76,5.78,5.78,0,0,0,.29,1h-.5a4,4,0,0,1-.25-.9c-.12-.52-.32-.71-.76-.73h-.46v1.63h-.48Zm.48,1.71h.5c.52,0,.85-.28.85-.71s-.35-.7-.87-.71a2.08,2.08,0,0,0-.48,0Z"/><path class="f9934f66-8bf1-4d12-b4ed-aa810160ba60" d="M55.91,3.45a.07.07,0,0,0,0-.05.46.46,0,0,1,.22-.29A.85.85,0,0,1,56.48,3a1,1,0,0,1,.42,0,.42.42,0,0,1,.19.09l.08.07A.53.53,0,0,1,57.54,3a1.14,1.14,0,0,1,.52,0,.59.59,0,0,1,.28.18.45.45,0,0,1,.1.29V6.11h-.58V3.79a.13.13,0,0,0,0-.06.23.23,0,0,0-.2-.1.22.22,0,0,0-.19.05.1.1,0,0,0-.06.1c0,.78,0,1.55,0,2.32v0l-.48,0V3.77a.1.1,0,0,0,0-.09.22.22,0,0,0-.19-.06.26.26,0,0,0-.2.11.08.08,0,0,0,0,0V6.1h-.56Z"/><path class="f9934f66-8bf1-4d12-b4ed-aa810160ba60" d="M61.23,6.92c.1-.24.19-.49.28-.73,0,0,0,0,0,0a2.92,2.92,0,0,0,.51,0A1.42,1.42,0,0,0,62.47,6a.36.36,0,0,0,.19-.21.19.19,0,0,0,0-.08l0,0,.53-.16.43-.14h.05l.33.14a.39.39,0,0,1,.2.2.4.4,0,0,1,0,.38,1.15,1.15,0,0,1-.23.21,3.81,3.81,0,0,1-.41.29,1,1,0,0,1-.3.11,4.38,4.38,0,0,1-.72.15L62,6.92h-.8Z"/><path class="f9934f66-8bf1-4d12-b4ed-aa810160ba60" d="M61.55,5.07l0,.07-.11.26s0,0,0,0H60a.29.29,0,0,0-.16,0s0,0,0,0a.26.26,0,0,0,.14.11l.2.06.51.16a.77.77,0,0,1,.41.32.31.31,0,0,1,0,.28.44.44,0,0,1-.12.19,1,1,0,0,1-.55.26H58.52l.2-.62h.14l.44,0,.47,0a.72.72,0,0,0,.33,0l.07,0s0,0,0,0l0,0L60,6.17a2.83,2.83,0,0,1-.4-.17l-.21-.09,0,0a.57.57,0,0,1-.15-.23.45.45,0,0,1,0-.23.19.19,0,0,1,.1-.12.86.86,0,0,1,.28-.11,2.75,2.75,0,0,1,.5-.09,4.22,4.22,0,0,1,.61,0h.88Z"/><path class="f9934f66-8bf1-4d12-b4ed-aa810160ba60" d="M62.48,4a.94.94,0,0,1,.21-.63A.82.82,0,0,1,63.24,3a.8.8,0,0,1,.73.26.93.93,0,0,1,.27.59,1.13,1.13,0,0,1-.07.51.91.91,0,0,1-.48.5.79.79,0,0,1-.81-.09.93.93,0,0,1-.39-.64s0,0,0-.06Zm.91-.41A.41.41,0,0,0,63,4a.41.41,0,0,0,.41.41A.42.42,0,0,0,63.8,4,.41.41,0,0,0,63.39,3.55Z"/><path class="f9934f66-8bf1-4d12-b4ed-aa810160ba60" d="M60.35,3h.23a.37.37,0,0,1,.2.09.26.26,0,0,1-.05.4.33.33,0,0,1-.19.06h-.26a.22.22,0,0,0-.14,0,.39.39,0,0,0-.23.4.38.38,0,0,0,.19.31.42.42,0,0,0,.16,0,2.26,2.26,0,0,1,.26,0,.31.31,0,0,1,.23.08.24.24,0,0,1,0,.42.3.3,0,0,1-.15,0h-.37a.82.82,0,0,1-.5-.17.86.86,0,0,1-.38-.55.86.86,0,0,1,.24-.86A.91.91,0,0,1,60.1,3a2.29,2.29,0,0,1,.25,0Z"/><path class="f9934f66-8bf1-4d12-b4ed-aa810160ba60" d="M61.88,3.87V3.73a.22.22,0,0,0-.19-.22.25.25,0,0,0-.23.09.28.28,0,0,0,0,.12V4.91H60.9v0c0-.39,0-.78,0-1.17a.67.67,0,0,1,.38-.63A.64.64,0,0,1,61.64,3a.21.21,0,0,0,.08,0,.65.65,0,0,1,.48.16.68.68,0,0,1,.23.42.7.7,0,0,1,0,.25,0,0,0,0,1,0,0h-.52Z"/><path class="f9934f66-8bf1-4d12-b4ed-aa810160ba60" d="M59.22,5h-.63V4a.31.31,0,0,1,.06-.21A.3.3,0,0,1,59,3.7a.31.31,0,0,1,.25.25V5Z"/><path class="f9934f66-8bf1-4d12-b4ed-aa810160ba60" d="M59.22,3.33A.32.32,0,1,1,58.91,3,.31.31,0,0,1,59.22,3.33Z"/><path class="f9934f66-8bf1-4d12-b4ed-aa810160ba60" d="M62.88,5.13l-.13.08-.41.26h0a2.36,2.36,0,0,0-.45-.08h-.06v0l.13-.31s0,0,0,0a5.34,5.34,0,0,1,.69,0l.23,0Z"/><path class="f9934f66-8bf1-4d12-b4ed-aa810160ba60" d="M63.5,5.29l-.15,0-.74.24h0l-.11,0h0L63,5.18h0a1.45,1.45,0,0,1,.35.07Z"/><path class="f9934f66-8bf1-4d12-b4ed-aa810160ba60" d="M63.11,14.12a1.3,1.3,0,1,1,1.21-1.76.14.14,0,0,1-.09.19.15.15,0,0,1-.19-.08,1,1,0,0,0-.93-.65,1,1,0,1,0,0,2,1,1,0,0,0,.93-.64.15.15,0,0,1,.19-.08.14.14,0,0,1,.08.19A1.28,1.28,0,0,1,63.11,14.12Z"/><polygon class="f9934f66-8bf1-4d12-b4ed-aa810160ba60" points="62.57 13.38 62.57 12.46 62.44 12.46 62.44 12.27 62.77 12.27 62.77 13.38 62.57 13.38"/><path class="f9934f66-8bf1-4d12-b4ed-aa810160ba60" d="M63.5,13v-.39a.17.17,0,1,0-.34,0V13a.16.16,0,0,0,.17.17A.16.16,0,0,0,63.5,13M63,13v-.4a.37.37,0,0,1,.38-.37.35.35,0,0,1,.37.36V13a.34.34,0,0,1-.37.36A.35.35,0,0,1,63,13"/><path class="f9934f66-8bf1-4d12-b4ed-aa810160ba60" d="M56.59,13.12h.25v0a.47.47,0,0,1-.1.35.82.82,0,0,1-.44.08c-.26,0-.41,0-.47-.13a1.43,1.43,0,0,1-.09-.67.55.55,0,0,1,.12-.42.83.83,0,0,1,.5-.1.61.61,0,0,1,.37.08.47.47,0,0,1,.09.33v0h-.24v0c0-.09,0-.14,0-.16a.37.37,0,0,0-.22,0q-.23,0-.27.06s0,.14,0,.33a1.22,1.22,0,0,0,0,.44s.12.07.27.07a.45.45,0,0,0,.24,0s.05-.08.05-.17Z"/><path class="f9934f66-8bf1-4d12-b4ed-aa810160ba60" d="M57.24,12.28v1.08h.61v.22H57v-1.3Z"/><path class="f9934f66-8bf1-4d12-b4ed-aa810160ba60" d="M58.76,13.33H58.2l-.09.25h-.26l.44-1.3h.37l.43,1.3h-.25Zm-.06-.18-.23-.68-.22.68Z"/><path class="f9934f66-8bf1-4d12-b4ed-aa810160ba60" d="M60.17,12.66h-.24v0a.27.27,0,0,0,0-.14.66.66,0,0,0-.19,0,.56.56,0,0,0-.23,0,.17.17,0,0,0-.05.14c0,.08,0,.13,0,.14a.93.93,0,0,0,.29,0,.86.86,0,0,1,.38.08.39.39,0,0,1,.08.28c0,.17,0,.28-.1.33a.82.82,0,0,1-.44.08.79.79,0,0,1-.41-.07.38.38,0,0,1-.1-.3v-.05h.24v0c0,.09,0,.14,0,.16a.64.64,0,0,0,.26,0,.45.45,0,0,0,.21,0,.23.23,0,0,0,.05-.17c0-.06,0-.1,0-.12a.3.3,0,0,0-.15,0h-.13a.89.89,0,0,1-.4-.08.4.4,0,0,1-.08-.29.35.35,0,0,1,.1-.3.68.68,0,0,1,.41-.08.74.74,0,0,1,.4.07.34.34,0,0,1,.1.27v.05Z"/><path class="f9934f66-8bf1-4d12-b4ed-aa810160ba60" d="M61.33,12.66h-.24v0a.17.17,0,0,0-.05-.14.61.61,0,0,0-.19,0,.51.51,0,0,0-.22,0s-.06.07-.06.14,0,.13,0,.14a.81.81,0,0,0,.29,0,.8.8,0,0,1,.37.08.35.35,0,0,1,.09.28.43.43,0,0,1-.1.33.85.85,0,0,1-.44.08.76.76,0,0,1-.41-.07.35.35,0,0,1-.1-.3v-.05h.24v0c0,.09,0,.14,0,.16a.58.58,0,0,0,.25,0,.48.48,0,0,0,.22,0s0-.08,0-.17a.17.17,0,0,0,0-.12.39.39,0,0,0-.15,0H60.8a.87.87,0,0,1-.39-.08.36.36,0,0,1-.09-.29.35.35,0,0,1,.11-.3.64.64,0,0,1,.41-.08.73.73,0,0,1,.39.07.31.31,0,0,1,.1.27v.05Z"/></g></g></svg>