<svg xmlns="http://www.w3.org/2000/svg" viewBox="0 0 28.03 20.04"><defs><style>.b0829591-2caa-406f-8958-1cfc61fe78c4{fill:#8c6239;}</style></defs><title>HOOBS_SETUP_SD_Card_flipped</title><g id="ff3e98d7-7ae8-4a0c-ba96-84209a442004" data-name="Ebene 2"><g id="e4bae762-264b-4587-b2d1-bcca16ad7b22" data-name="Ebene 1"><path d="M12.86.52A.49.49,0,0,1,13.35,0c.87,0,1.73,0,2.59,0a.49.49,0,0,1,.31.11c.94.77,1.86,1.54,2.79,2.32a.53.53,0,0,0,.36.13h8.21c.06,0,.16,0,.18.07a1.32,1.32,0,0,1,.24.67c0,2.34,0,4.69,0,7V19.4a.77.77,0,0,1-.06.3.62.62,0,0,1-.64.34L19.2,20H.53C.17,20,0,19.91,0,19.48q0-7.15,0-14.3C0,3.61,0,2,0,.46,0,.06.06,0,.46,0H9.57a.61.61,0,0,1,.31.11c.4.28.79.58,1.18.86a.33.33,0,0,0,.17.08c.54,0,1.07,0,1.63,0Z"/><rect class="b0829591-2caa-406f-8958-1cfc61fe78c4" x="16.6" y="4.64" width="9.62" height="2"/><rect class="b0829591-2caa-406f-8958-1cfc61fe78c4" x="16.6" y="7.52" width="9.62" height="2"/><rect class="b0829591-2caa-406f-8958-1cfc61fe78c4" x="16.6" y="10.4" width="9.62" height="2"/><rect class="b0829591-2caa-406f-8958-1cfc61fe78c4" x="16.6" y="13.29" width="9.62" height="2"/><rect class="b0829591-2caa-406f-8958-1cfc61fe78c4" x="16.6" y="16.17" width="9.62" height="2"/></g></g></svg>