<svg id="b8d683e4-8538-46db-af55-98bd3a52ec38" data-name="Ebene 1" xmlns="http://www.w3.org/2000/svg" viewBox="0 0 28.03 20.04"><defs><style>.ac118b0e-d9dc-440b-a6bd-c037a83203df{fill:#f8b40c;}.e33283fe-2f76-475b-b0d6-372986f9c77c{fill:#fff;}</style></defs><title>HOOBS_SETUP_micro_sd</title><path d="M12.86,19H11.23a.33.33,0,0,0-.17.08c-.39.29-.78.58-1.18.86a.61.61,0,0,1-.31.11H.46C.06,20,0,20,0,19.58,0,18,0,16.43,0,14.86Q0,7.72,0,.56C0,.13.17.05.53.05H19.2c2.71,0,5.42,0,8.13,0A.62.62,0,0,1,28,.34a.8.8,0,0,1,.06.3V9.7c0,2.34,0,4.69,0,7a1.32,1.32,0,0,1-.24.67s-.12.06-.18.07c-.22,0-.44,0-.66,0H19.4a.53.53,0,0,0-.36.13c-.93.78-1.85,1.55-2.79,2.32a.5.5,0,0,1-.31.12l-2.59,0a.51.51,0,0,1-.49-.5Z"/><path class="ac118b0e-d9dc-440b-a6bd-c037a83203df" d="M10.88,2.94H5.37A1.65,1.65,0,0,0,3.73,4.6v5.56a1.66,1.66,0,0,0,1.64,1.66h5.51a1.66,1.66,0,0,0,1.64-1.66V4.6A1.65,1.65,0,0,0,10.88,2.94Zm.22,4.29a.22.22,0,0,1-.2.18.19.19,0,0,1-.23-.1,1.67,1.67,0,0,0-.46-.56A.62.62,0,0,1,10,6.22c0-.13,0-.27,0-.41h0V5.27c0-.17-.1-.2-.24-.19s-.29,0-.3.18v.49c0,.06,0,.13,0,.16s-.09,0-.13-.09l-1.08-1c-.11-.11-.19-.1-.29,0L5.57,7.17c-.1.1-.12.19,0,.28l.07.08c.16.15.18.14.34,0C6.5,7,7,6.53,7.48,6l.32-.3a.41.41,0,0,1,.63,0c.22.2.43.42.64.63l1.18,1.18a.45.45,0,0,1,0,.74c-.4.41-.56.41-1,0L8.22,7.25c-.11-.11-.19-.1-.3,0-.37.38-.75.77-1.13,1.14a.17.17,0,0,0,0,.28l.11.11a.16.16,0,0,0,.27,0l.61-.59a.43.43,0,0,1,.65,0l.67.66a.44.44,0,0,1,0,.63l-.46.47a.77.77,0,0,0-.24.32.24.24,0,0,1-.44,0,.24.24,0,0,1,.12-.28,3.6,3.6,0,0,0,.77-.69c.06-.06.06-.12,0-.19l-.61-.61c-.08-.08-.15-.06-.23,0l-.61.59a.44.44,0,0,1-.65,0l-.16-.15a.48.48,0,0,1,0-.77L7.71,7a.45.45,0,0,1,.72,0L9.59,8.14c.17.16.19.16.38,0s.17-.2,0-.36L8.26,6c-.1-.1-.18-.11-.27,0l-.8.78-1.05,1a.44.44,0,0,1-.64,0c-.42-.38-.52-.58,0-1C6.22,6.07,7,5.31,7.69,4.56a.46.46,0,0,1,.76,0L9,5.08c.08.07.13.12.17,0a.36.36,0,0,1,.32-.28l.2,0c.47,0,.64.15.64.63v.85a.38.38,0,0,0,.11.29c.19.16.32.37.56.47A.21.21,0,0,1,11.1,7.23Z"/><path class="ac118b0e-d9dc-440b-a6bd-c037a83203df" d="M5.22,12.82v1.63H4.84v-.67H4.11v.67H3.73V12.82h.38v.64h.73v-.64Zm.28.81a.84.84,0,0,1,.89-.83.84.84,0,1,1,0,1.67A.84.84,0,0,1,5.5,13.63Zm1.4,0a.51.51,0,1,0-.51.52A.49.49,0,0,0,6.9,13.63Zm.56,0a.84.84,0,0,1,.89-.83.84.84,0,1,1,0,1.67A.84.84,0,0,1,7.46,13.63Zm1.4,0a.51.51,0,1,0-.51.52A.49.49,0,0,0,8.86,13.63ZM11,14c0,.28-.22.45-.65.45H9.52V12.82h.79c.41,0,.62.17.62.43a.39.39,0,0,1-.22.35A.41.41,0,0,1,11,14Zm-1.12-.89v.38h.38c.18,0,.28-.07.28-.19s-.1-.19-.28-.19Zm.74.85c0-.13-.1-.2-.3-.2H9.89v.4h.44C10.53,14.16,10.63,14.1,10.63,14Zm.54.33.12-.29a1,1,0,0,0,.54.17c.22,0,.31-.07.31-.17,0-.3-.94-.1-.94-.7,0-.28.22-.5.68-.5a1,1,0,0,1,.57.14l-.12.28a1,1,0,0,0-.45-.12c-.22,0-.31.08-.31.18,0,.3.95.09.95.69,0,.27-.23.5-.69.5A1.15,1.15,0,0,1,11.17,14.29Z"/><path class="e33283fe-2f76-475b-b0d6-372986f9c77c" d="M16.52,10a.47.47,0,0,1,.32-.43h0a.41.41,0,0,1-.25-.37.45.45,0,0,1,.5-.43.42.42,0,0,1,.47.4.41.41,0,0,1-.27.38h0a.45.45,0,0,1,.33.42.5.5,0,0,1-.55.47C16.73,10.44,16.52,10.24,16.52,10Zm.88,0c0-.2-.14-.29-.36-.35a.35.35,0,0,0-.29.33.33.33,0,0,0,.65,0Zm-.61-.81c0,.16.12.25.31.3a.33.33,0,0,0,.25-.3.25.25,0,0,0-.28-.26A.26.26,0,0,0,16.79,9.18Z"/><path class="e33283fe-2f76-475b-b0d6-372986f9c77c" d="M19.18,10.34a1.75,1.75,0,0,1-.52.09.91.91,0,0,1-.63-.22.9.9,0,0,1-.23-.63.85.85,0,0,1,.91-.87,1.14,1.14,0,0,1,.42.08L19.08,9a.92.92,0,0,0-.38-.07.62.62,0,0,0-.67.67.68.68,0,0,0,.94.63V9.7h-.35V9.53h.56Z"/><path class="e33283fe-2f76-475b-b0d6-372986f9c77c" d="M19.51,8.75a2.1,2.1,0,0,1,.4,0,.74.74,0,0,1,.46.12.38.38,0,0,1,.14.3.41.41,0,0,1-.29.37h0a.43.43,0,0,1,.35.42.46.46,0,0,1-.14.34.84.84,0,0,1-.58.16l-.34,0Zm.22.69h.19c.23,0,.37-.12.37-.28s-.15-.27-.37-.27h-.19Zm0,.81h.18c.22,0,.43-.09.43-.33s-.2-.32-.43-.32h-.18Z"/><path class="e33283fe-2f76-475b-b0d6-372986f9c77c" d="M16.53,3.45a.07.07,0,0,0,0-.05.44.44,0,0,1,.23-.29A.76.76,0,0,1,17.1,3a1,1,0,0,1,.42,0,.42.42,0,0,1,.19.09l.08.07A.53.53,0,0,1,18.16,3a1.14,1.14,0,0,1,.52,0,.68.68,0,0,1,.29.18.44.44,0,0,1,.09.29V6.11h-.57V3.79a.14.14,0,0,0,0-.06.23.23,0,0,0-.2-.1.22.22,0,0,0-.19.05.11.11,0,0,0,0,.1V6.14l-.49,0V3.77a.09.09,0,0,0,0-.09.25.25,0,0,0-.2-.06.27.27,0,0,0-.2.11.07.07,0,0,0,0,0V6.1h-.57Z"/><path class="e33283fe-2f76-475b-b0d6-372986f9c77c" d="M21.85,6.92c.1-.24.19-.49.29-.73a0,0,0,0,1,0,0,3,3,0,0,0,.52,0,1.36,1.36,0,0,0,.4-.14.36.36,0,0,0,.19-.21s0,0,0-.08,0,0,0,0l.52-.16.43-.14h.06l.32.14a.39.39,0,0,1,.2.2.37.37,0,0,1-.05.38.93.93,0,0,1-.23.21,3.81,3.81,0,0,1-.41.29,1,1,0,0,1-.29.11,4.5,4.5,0,0,1-.73.15l-.49.06h-.8Z"/><path class="e33283fe-2f76-475b-b0d6-372986f9c77c" d="M22.18,5.07l0,.07L22,5.4s0,0,0,0h-1.4a.29.29,0,0,0-.16,0s0,0,0,0a.26.26,0,0,0,.14.11l.2.06.51.16a.74.74,0,0,1,.41.32.32.32,0,0,1,.05.28.59.59,0,0,1-.13.19,1,1,0,0,1-.55.26H19.14l.2-.62h.14l.44,0,.48,0a.74.74,0,0,0,.33,0l.07,0s0,0,0,0l0,0-.17-.08a2.83,2.83,0,0,1-.4-.17L20,5.91l0,0a.57.57,0,0,1-.15-.23.45.45,0,0,1,0-.23.23.23,0,0,1,.1-.12,1,1,0,0,1,.28-.11,3,3,0,0,1,.51-.09,4,4,0,0,1,.6,0h.89Z"/><path class="e33283fe-2f76-475b-b0d6-372986f9c77c" d="M23.1,4a.94.94,0,0,1,.21-.63.84.84,0,0,1,1.29-.07.92.92,0,0,1,.26.59,1,1,0,0,1-.07.51.87.87,0,0,1-.48.5.79.79,0,0,1-.81-.09,1,1,0,0,1-.39-.64V4.07A.45.45,0,0,1,23.1,4ZM24,3.55A.41.41,0,0,0,23.6,4a.41.41,0,0,0,.41.41A.42.42,0,0,0,24.42,4,.41.41,0,0,0,24,3.55Z"/><path class="e33283fe-2f76-475b-b0d6-372986f9c77c" d="M21,3h.24a.34.34,0,0,1,.19.09.26.26,0,0,1,0,.4.36.36,0,0,1-.2.06H20.9a.22.22,0,0,0-.14,0,.39.39,0,0,0-.23.4.37.37,0,0,0,.2.31.33.33,0,0,0,.15,0,2.43,2.43,0,0,1,.27,0,.34.34,0,0,1,.23.08.25.25,0,0,1-.05.42.27.27,0,0,1-.15,0h-.37a.84.84,0,0,1-.5-.17.86.86,0,0,1-.38-.55.88.88,0,0,1,.24-.86A.91.91,0,0,1,20.72,3,2.29,2.29,0,0,1,21,3Z"/><path class="e33283fe-2f76-475b-b0d6-372986f9c77c" d="M22.51,3.87a.65.65,0,0,1,0-.14.22.22,0,0,0-.19-.22.26.26,0,0,0-.24.09.27.27,0,0,0,0,.12V4.91h-.53v0c0-.39,0-.78,0-1.17A.67.67,0,0,1,22.27,3s.05,0,.08,0a.63.63,0,0,1,.47.16.68.68,0,0,1,.23.42.7.7,0,0,1,0,.25,0,0,0,0,1,0,0h-.52Z"/><path class="e33283fe-2f76-475b-b0d6-372986f9c77c" d="M19.85,5h-.64V4a.31.31,0,0,1,.06-.21.3.3,0,0,1,.32-.13.31.31,0,0,1,.25.25s0,.06,0,.09V5Z"/><path class="e33283fe-2f76-475b-b0d6-372986f9c77c" d="M19.84,3.33a.31.31,0,0,1-.31.31.32.32,0,1,1,0-.63A.31.31,0,0,1,19.84,3.33Z"/><path class="e33283fe-2f76-475b-b0d6-372986f9c77c" d="M23.5,5.13l-.13.08L23,5.47h0a2.46,2.46,0,0,0-.46-.08h-.06v0l.13-.31s0,0,0,0a5.34,5.34,0,0,1,.69,0l.23,0Z"/><path class="e33283fe-2f76-475b-b0d6-372986f9c77c" d="M24.13,5.29l-.16,0-.73.24h0l-.11,0h0l.55-.34h0a1.36,1.36,0,0,1,.35.07Z"/><path class="e33283fe-2f76-475b-b0d6-372986f9c77c" d="M23.73,14.12a1.3,1.3,0,1,1,1.21-1.76.14.14,0,0,1-.08.19.15.15,0,0,1-.19-.08,1,1,0,1,0-.94,1.36,1,1,0,0,0,.93-.64.15.15,0,0,1,.19-.08.14.14,0,0,1,.09.19A1.3,1.3,0,0,1,23.73,14.12Z"/><polygon class="e33283fe-2f76-475b-b0d6-372986f9c77c" points="23.19 13.38 23.19 12.46 23.06 12.46 23.06 12.27 23.4 12.27 23.4 13.38 23.19 13.38"/><path class="e33283fe-2f76-475b-b0d6-372986f9c77c" d="M24.12,13v-.39a.17.17,0,0,0-.34,0V13a.16.16,0,0,0,.17.17.16.16,0,0,0,.17-.17m-.54,0v-.4a.38.38,0,0,1,.75,0V13a.38.38,0,0,1-.75,0"/><path class="e33283fe-2f76-475b-b0d6-372986f9c77c" d="M17.21,13.12h.25v0c0,.18,0,.3-.1.35a.82.82,0,0,1-.44.08c-.25,0-.41,0-.47-.13a1.43,1.43,0,0,1-.09-.67.55.55,0,0,1,.12-.42.83.83,0,0,1,.5-.1.61.61,0,0,1,.37.08.42.42,0,0,1,.1.33v0H17.2v0c0-.09,0-.14-.05-.16s-.1,0-.22,0-.24,0-.27.06a.62.62,0,0,0-.05.33,1.53,1.53,0,0,0,0,.44s.12.07.27.07a.45.45,0,0,0,.24,0s.05-.08.05-.17Z"/><path class="e33283fe-2f76-475b-b0d6-372986f9c77c" d="M17.86,12.28v1.08h.61v.22h-.86v-1.3Z"/><path class="e33283fe-2f76-475b-b0d6-372986f9c77c" d="M19.38,13.33h-.56l-.08.25h-.26l.43-1.3h.37l.44,1.3h-.26Zm-.06-.18-.22-.68-.22.68Z"/><path class="e33283fe-2f76-475b-b0d6-372986f9c77c" d="M20.79,12.66h-.24v0c0-.07,0-.12-.05-.14a.66.66,0,0,0-.19,0,.56.56,0,0,0-.23,0,.17.17,0,0,0,0,.14c0,.08,0,.13,0,.14a.93.93,0,0,0,.29,0,.82.82,0,0,1,.38.08.39.39,0,0,1,.08.28c0,.17,0,.28-.1.33a.8.8,0,0,1-.44.08.72.72,0,0,1-.4-.07.35.35,0,0,1-.1-.3v-.05H20v0c0,.09,0,.14,0,.16a.64.64,0,0,0,.26,0,.45.45,0,0,0,.21,0,.23.23,0,0,0,0-.17c0-.06,0-.1,0-.12a.3.3,0,0,0-.15,0h-.13a.89.89,0,0,1-.4-.08.4.4,0,0,1-.08-.29.35.35,0,0,1,.1-.3.68.68,0,0,1,.41-.08.74.74,0,0,1,.4.07.31.31,0,0,1,.1.27v.05Z"/><path class="e33283fe-2f76-475b-b0d6-372986f9c77c" d="M22,12.66h-.24v0a.21.21,0,0,0,0-.14.66.66,0,0,0-.19,0,.53.53,0,0,0-.23,0s-.06.07-.06.14,0,.13,0,.14a.87.87,0,0,0,.29,0,.77.77,0,0,1,.37.08.35.35,0,0,1,.09.28.43.43,0,0,1-.1.33.85.85,0,0,1-.44.08.76.76,0,0,1-.41-.07.35.35,0,0,1-.1-.3v-.05h.24v0c0,.09,0,.14.05.16a.64.64,0,0,0,.26,0,.45.45,0,0,0,.21,0s0-.08,0-.17a.17.17,0,0,0,0-.12.3.3,0,0,0-.15,0h-.14a.87.87,0,0,1-.39-.08.36.36,0,0,1-.09-.29.35.35,0,0,1,.11-.3.66.66,0,0,1,.41-.08.68.68,0,0,1,.39.07.31.31,0,0,1,.11.27v.05Z"/></svg>