<svg xmlns="http://www.w3.org/2000/svg" viewBox="0 0 183 125"><defs><style>.f5fe07ce-a07d-4aa7-bdb1-6e6abad58038{fill:#fff;}.a17a01e2-a9da-4d11-8d67-fea34e120bef,.e8f5d6db-551e-4609-87ee-892ff3b26b5a{fill:none;stroke:#000;stroke-miterlimit:10;}.e8f5d6db-551e-4609-87ee-892ff3b26b5a{stroke-width:0.25px;}.b098dfca-c1ea-4534-a379-dbb5d0359405{fill:#f6b414;}</style></defs><title>HOOBS_SETUP_HOOBSinabox</title><g id="fa8dd827-beca-4602-98d6-e2257b5a8d14" data-name="Ebene 2"><g id="b231ae61-395f-4ace-a276-bcdaa44be72e" data-name="Ebene 1"><path class="f5fe07ce-a07d-4aa7-bdb1-6e6abad58038" d="M175.69.5H7.31A6.81,6.81,0,0,0,.5,7.31V117.69a6.81,6.81,0,0,0,6.81,6.81H166.69a6.81,6.81,0,0,0,6.81-6.81V75.5h2.19a6.81,6.81,0,0,0,6.81-6.81V7.31A6.81,6.81,0,0,0,175.69.5Z"/><path class="a17a01e2-a9da-4d11-8d67-fea34e120bef" d="M175.69.5H7.31A6.81,6.81,0,0,0,.5,7.31V117.69a6.81,6.81,0,0,0,6.81,6.81H166.69a6.81,6.81,0,0,0,6.81-6.81V75.5h2.19a6.81,6.81,0,0,0,6.81-6.81V7.31A6.81,6.81,0,0,0,175.69.5Z"/><polygon points="96.87 25.97 97.47 25.85 97.95 25.97 98.55 26.09 98.91 26.45 99.27 26.93 99.51 27.53 99.51 28.01 99.39 28.61 99.15 29.09 98.79 29.57 98.31 29.81 97.71 30.05 97.11 30.05 96.63 29.81 96.15 29.57 95.67 29.09 95.43 28.61 95.31 28.01 95.43 27.53 95.55 26.93 95.91 26.45 96.39 26.09 96.87 25.97"/><polygon points="70.35 44.09 71.07 44.09 71.67 44.09 72.27 44.33 72.87 44.69 73.23 45.17 73.59 45.77 73.71 46.49 73.71 47.09 73.59 47.81 73.23 48.29 72.87 48.89 72.27 49.25 71.67 49.49 71.07 49.49 70.35 49.49 69.75 49.25 69.15 48.89 68.79 48.29 68.43 47.81 68.31 47.09 68.31 46.49 68.43 45.77 68.79 45.17 69.15 44.69 69.75 44.33 70.35 44.09"/><polygon points="69.15 41.33 68.79 40.85 68.43 40.25 68.31 39.53 68.31 38.93 68.43 38.21 68.79 37.73 69.15 37.13 69.75 36.77 70.35 36.53 71.07 36.53 71.67 36.53 72.27 36.77 72.87 37.13 73.23 37.73 73.59 38.21 73.71 38.93 73.71 39.53 73.59 40.25 73.23 40.85 72.87 41.33 72.27 41.69 71.67 41.93 71.07 41.93 70.35 41.93 69.75 41.69 69.15 41.33"/><polygon points="73.47 44.69 73.11 44.21 72.87 43.73 72.75 43.13 72.75 42.53 72.99 42.05 73.23 41.57 73.71 41.21 74.19 40.97 74.79 40.97 75.39 40.97 75.87 41.21 76.35 41.57 76.59 42.05 76.83 42.53 76.83 43.13 76.71 43.73 76.47 44.21 76.11 44.69 75.63 44.93 75.03 45.05 74.55 45.05 73.95 44.93 73.47 44.69"/><polygon points="75.87 39.53 75.87 38.93 75.99 38.21 76.35 37.73 76.71 37.13 77.31 36.77 77.91 36.53 78.51 36.53 79.23 36.53 79.83 36.77 80.43 37.13 80.79 37.73 81.15 38.21 81.27 38.93 81.27 39.53 81.15 40.25 80.79 40.85 80.43 41.33 79.83 41.69 79.23 41.93 78.51 41.93 77.91 41.93 77.31 41.69 76.71 41.33 76.35 40.85 75.99 40.25 75.87 39.53"/><polygon points="75.87 46.49 75.99 45.77 76.35 45.17 76.71 44.69 77.31 44.33 77.91 44.09 78.51 44.09 79.23 44.09 79.83 44.33 80.43 44.69 80.79 45.17 81.15 45.77 81.27 46.49 81.27 47.09 81.15 47.81 80.79 48.29 80.43 48.89 79.83 49.25 79.23 49.49 78.51 49.49 77.91 49.49 77.31 49.25 76.71 48.89 76.35 48.29 75.99 47.81 75.87 47.09 75.87 46.49"/><polygon points="81.03 44.69 80.67 44.21 80.43 43.73 80.31 43.13 80.31 42.53 80.43 42.05 80.79 41.57 81.27 41.21 81.75 40.97 82.35 40.97 82.95 40.97 83.43 41.21 83.91 41.57 84.15 42.05 84.39 42.53 84.39 43.13 84.27 43.73 84.03 44.21 83.67 44.69 83.19 44.93 82.59 45.05 82.11 45.05 81.51 44.93 81.03 44.69"/><polygon points="83.43 39.53 83.43 38.93 83.55 38.21 83.91 37.73 84.27 37.13 84.87 36.77 85.47 36.53 86.07 36.53 86.79 36.53 87.39 36.77 87.99 37.13 88.35 37.73 88.71 38.21 88.83 38.93 88.83 39.53 88.71 40.25 88.35 40.85 87.99 41.33 87.39 41.69 86.79 41.93 86.07 41.93 85.47 41.93 84.87 41.69 84.27 41.33 83.91 40.85 83.55 40.25 83.43 39.53"/><polygon points="83.43 46.49 83.55 45.77 83.91 45.17 84.27 44.69 84.87 44.33 85.47 44.09 86.07 44.09 86.79 44.09 87.39 44.33 87.99 44.69 88.35 45.17 88.71 45.77 88.83 46.49 88.83 47.09 88.71 47.81 88.35 48.29 87.99 48.89 87.39 49.25 86.79 49.49 86.07 49.49 85.47 49.49 84.87 49.25 84.27 48.89 83.91 48.29 83.55 47.81 83.43 47.09 83.43 46.49"/><polygon points="88.59 44.69 88.23 44.21 87.87 43.73 87.75 43.13 87.87 42.53 87.99 42.05 88.35 41.57 88.83 41.21 89.31 40.97 89.91 40.97 90.39 40.97 90.99 41.21 91.35 41.57 91.71 42.05 91.95 42.53 91.95 43.13 91.83 43.73 91.59 44.21 91.23 44.69 90.75 44.93 90.15 45.05 89.55 45.05 89.07 44.93 88.59 44.69"/><polygon points="90.87 46.49 91.11 45.77 91.35 45.17 91.83 44.69 92.43 44.33 93.03 44.09 93.63 44.09 94.35 44.09 94.95 44.33 95.43 44.69 95.91 45.17 96.27 45.77 96.39 46.49 96.39 47.09 96.27 47.81 95.91 48.29 95.43 48.89 94.95 49.25 94.35 49.49 93.63 49.49 93.03 49.49 92.43 49.25 91.83 48.89 91.35 48.29 91.11 47.81 90.87 47.09 90.87 46.49"/><polygon points="94.35 41.93 93.63 41.93 93.03 41.93 92.43 41.69 91.83 41.33 91.35 40.85 91.11 40.25 90.87 39.53 90.87 38.93 91.11 38.21 91.35 37.73 91.83 37.13 92.43 36.77 93.03 36.53 93.63 36.53 94.35 36.53 94.95 36.77 95.43 37.13 95.91 37.73 96.27 38.21 96.39 38.93 96.39 39.53 96.27 40.25 95.91 40.85 95.43 41.33 94.95 41.69 94.35 41.93"/><polygon points="94.35 34.37 93.63 34.49 93.03 34.37 92.43 34.13 91.83 33.77 91.35 33.29 91.11 32.69 90.87 31.97 90.87 31.37 91.11 30.77 91.35 30.17 91.83 29.69 92.43 29.21 93.03 29.09 93.63 28.97 94.35 29.09 94.95 29.21 95.43 29.69 95.91 30.17 96.27 30.77 96.39 31.37 96.39 31.97 96.27 32.69 95.91 33.29 95.43 33.77 94.95 34.13 94.35 34.37"/><polygon points="90.99 33.65 91.35 34.01 91.71 34.49 91.95 35.09 91.95 35.57 91.83 36.17 91.59 36.65 91.23 37.13 90.75 37.37 90.15 37.49 89.55 37.49 89.07 37.37 88.59 37.13 88.23 36.65 87.87 36.17 87.75 35.57 87.87 35.09 87.99 34.49 88.35 34.01 88.83 33.65 89.31 33.41 89.91 33.41 90.39 33.41 90.99 33.65"/><polygon points="88.83 31.97 88.71 32.69 88.35 33.29 87.99 33.77 87.39 34.13 86.79 34.37 86.07 34.49 85.47 34.37 84.87 34.13 84.27 33.77 83.91 33.29 83.55 32.69 83.43 31.97 83.43 31.37 83.55 30.77 83.91 30.17 84.27 29.69 84.87 29.21 85.47 29.09 86.07 28.97 86.79 29.09 87.39 29.21 87.99 29.69 88.35 30.17 88.71 30.77 88.83 31.37 88.83 31.97"/><polygon points="83.91 34.01 84.15 34.49 84.39 35.09 84.39 35.57 84.27 36.17 84.03 36.65 83.67 37.13 83.19 37.37 82.59 37.49 82.11 37.49 81.51 37.37 81.03 37.13 80.67 36.65 80.43 36.17 80.31 35.57 80.31 35.09 80.43 34.49 80.79 34.01 81.27 33.65 81.75 33.41 82.35 33.41 82.95 33.41 83.43 33.65 83.91 34.01"/><polygon points="81.27 31.97 81.15 32.69 80.79 33.29 80.43 33.77 79.83 34.13 79.23 34.37 78.51 34.49 77.91 34.37 77.31 34.13 76.71 33.77 76.35 33.29 75.99 32.69 75.87 31.97 75.87 31.37 75.99 30.77 76.35 30.17 76.71 29.69 77.31 29.21 77.91 29.09 78.51 28.97 79.23 29.09 79.83 29.21 80.43 29.69 80.79 30.17 81.15 30.77 81.27 31.37 81.27 31.97"/><polygon points="76.35 34.01 76.59 34.49 76.83 35.09 76.83 35.57 76.71 36.17 76.47 36.65 76.11 37.13 75.63 37.37 75.03 37.49 74.55 37.49 73.95 37.37 73.47 37.13 73.11 36.65 72.87 36.17 72.75 35.57 72.75 35.09 72.99 34.49 73.23 34.01 73.71 33.65 74.19 33.41 74.79 33.41 75.39 33.41 75.87 33.65 76.35 34.01"/><polygon points="73.71 31.97 73.59 32.69 73.23 33.29 72.87 33.77 72.27 34.13 71.67 34.37 71.07 34.49 70.35 34.37 69.75 34.13 69.15 33.77 68.79 33.29 68.43 32.69 68.31 31.97 68.31 31.37 68.43 30.77 68.79 30.17 69.15 29.69 69.75 29.21 70.35 29.09 71.07 28.97 71.67 29.09 72.27 29.21 72.87 29.69 73.23 30.17 73.59 30.77 73.71 31.37 73.71 31.97"/><polygon points="68.79 34.01 69.15 34.49 69.27 35.09 69.39 35.57 69.27 36.17 68.91 36.65 68.55 37.13 68.07 37.37 67.59 37.49 66.99 37.49 66.39 37.37 65.91 37.13 65.55 36.65 65.31 36.17 65.19 35.57 65.19 35.09 65.43 34.49 65.67 34.01 66.15 33.65 66.75 33.41 67.23 33.41 67.83 33.41 68.31 33.65 68.79 34.01"/><polygon points="66.75 40.97 67.23 40.97 67.83 40.97 68.31 41.21 68.79 41.57 69.15 42.05 69.27 42.53 69.39 43.13 69.27 43.73 68.91 44.21 68.55 44.69 68.07 44.93 67.59 45.05 66.99 45.05 66.39 44.93 65.91 44.69 65.55 44.21 65.31 43.73 65.19 43.13 65.19 42.53 65.43 42.05 65.67 41.57 66.15 41.21 66.75 40.97"/><polygon points="66.75 48.53 67.23 48.53 67.83 48.53 68.31 48.77 68.79 49.13 69.15 49.61 69.27 50.09 69.39 50.69 69.27 51.29 68.91 51.77 68.55 52.13 68.07 52.49 67.59 52.61 66.99 52.61 66.39 52.49 65.91 52.13 65.55 51.77 65.31 51.29 65.19 50.69 65.19 50.09 65.43 49.61 65.67 49.13 66.15 48.77 66.75 48.53"/><polygon points="68.31 54.05 68.43 53.33 68.79 52.73 69.15 52.25 69.75 51.89 70.35 51.65 71.07 51.53 71.67 51.65 72.27 51.89 72.87 52.25 73.23 52.73 73.59 53.33 73.71 54.05 73.71 54.65 73.59 55.25 73.23 55.85 72.87 56.33 72.27 56.81 71.67 57.05 71.07 57.05 70.35 57.05 69.75 56.81 69.15 56.33 68.79 55.85 68.43 55.25 68.31 54.65 68.31 54.05"/><polygon points="73.47 52.13 73.11 51.77 72.87 51.29 72.75 50.69 72.75 50.09 72.99 49.61 73.23 49.13 73.71 48.77 74.19 48.53 74.79 48.53 75.39 48.53 75.87 48.77 76.35 49.13 76.59 49.61 76.83 50.09 76.83 50.69 76.71 51.29 76.47 51.77 76.11 52.13 75.63 52.49 75.03 52.61 74.55 52.61 73.95 52.49 73.47 52.13"/><polygon points="75.87 54.05 75.99 53.33 76.35 52.73 76.71 52.25 77.31 51.89 77.91 51.65 78.51 51.53 79.23 51.65 79.83 51.89 80.43 52.25 80.79 52.73 81.15 53.33 81.27 54.05 81.27 54.65 81.15 55.25 80.79 55.85 80.43 56.33 79.83 56.81 79.23 57.05 78.51 57.05 77.91 57.05 77.31 56.81 76.71 56.33 76.35 55.85 75.99 55.25 75.87 54.65 75.87 54.05"/><polygon points="81.03 52.13 80.67 51.77 80.43 51.29 80.31 50.69 80.31 50.09 80.43 49.61 80.79 49.13 81.27 48.77 81.75 48.53 82.35 48.53 82.95 48.53 83.43 48.77 83.91 49.13 84.15 49.61 84.39 50.09 84.39 50.69 84.27 51.29 84.03 51.77 83.67 52.13 83.19 52.49 82.59 52.61 82.11 52.61 81.51 52.49 81.03 52.13"/><polygon points="83.43 54.05 83.55 53.33 83.91 52.73 84.27 52.25 84.87 51.89 85.47 51.65 86.07 51.53 86.79 51.65 87.39 51.89 87.99 52.25 88.35 52.73 88.71 53.33 88.83 54.05 88.83 54.65 88.71 55.25 88.35 55.85 87.99 56.33 87.39 56.81 86.79 57.05 86.07 57.05 85.47 57.05 84.87 56.81 84.27 56.33 83.91 55.85 83.55 55.25 83.43 54.65 83.43 54.05"/><polygon points="88.59 52.13 88.23 51.77 87.87 51.29 87.75 50.69 87.87 50.09 87.99 49.61 88.35 49.13 88.83 48.77 89.31 48.53 89.91 48.53 90.39 48.53 90.99 48.77 91.35 49.13 91.71 49.61 91.95 50.09 91.95 50.69 91.83 51.29 91.59 51.77 91.23 52.13 90.75 52.49 90.15 52.61 89.55 52.61 89.07 52.49 88.59 52.13"/><polygon points="90.87 54.05 91.11 53.33 91.35 52.73 91.83 52.25 92.43 51.89 93.03 51.65 93.63 51.53 94.35 51.65 94.95 51.89 95.43 52.25 95.91 52.73 96.27 53.33 96.39 54.05 96.39 54.65 96.27 55.25 95.91 55.85 95.43 56.33 94.95 56.81 94.35 57.05 93.63 57.05 93.03 57.05 92.43 56.81 91.83 56.33 91.35 55.85 91.11 55.25 90.87 54.65 90.87 54.05"/><polygon points="96.15 52.13 95.67 51.77 95.43 51.29 95.31 50.69 95.43 50.09 95.55 49.61 95.91 49.13 96.39 48.77 96.87 48.53 97.47 48.53 97.95 48.53 98.55 48.77 98.91 49.13 99.27 49.61 99.51 50.09 99.51 50.69 99.39 51.29 99.15 51.77 98.79 52.13 98.31 52.49 97.71 52.61 97.11 52.61 96.63 52.49 96.15 52.13"/><polygon points="97.71 45.05 97.11 45.05 96.63 44.93 96.15 44.69 95.67 44.21 95.43 43.73 95.31 43.13 95.43 42.53 95.55 42.05 95.91 41.57 96.39 41.21 96.87 40.97 97.47 40.97 97.95 40.97 98.55 41.21 98.91 41.57 99.27 42.05 99.51 42.53 99.51 43.13 99.39 43.73 99.15 44.21 98.79 44.69 98.31 44.93 97.71 45.05"/><polygon points="97.71 37.49 97.11 37.49 96.63 37.37 96.15 37.13 95.67 36.65 95.43 36.17 95.31 35.57 95.43 35.09 95.55 34.49 95.91 34.01 96.39 33.65 96.87 33.41 97.47 33.41 97.95 33.41 98.55 33.65 98.91 34.01 99.27 34.49 99.51 35.09 99.51 35.57 99.39 36.17 99.15 36.65 98.79 37.13 98.31 37.37 97.71 37.49"/><polygon points="90.87 23.81 91.11 23.21 91.35 22.61 91.83 22.13 92.43 21.77 93.03 21.53 93.63 21.41 94.35 21.53 94.95 21.77 95.43 22.13 95.91 22.61 96.27 23.21 96.39 23.81 96.39 24.53 96.27 25.13 95.91 25.73 95.43 26.21 94.95 26.57 94.35 26.81 93.63 26.93 93.03 26.81 92.43 26.57 91.83 26.21 91.35 25.73 91.11 25.13 90.87 24.53 90.87 23.81"/><polygon points="89.91 25.85 90.39 25.97 90.99 26.09 91.35 26.45 91.71 26.93 91.95 27.53 91.95 28.01 91.83 28.61 91.59 29.09 91.23 29.57 90.75 29.81 90.15 30.05 89.55 30.05 89.07 29.81 88.59 29.57 88.23 29.09 87.87 28.61 87.75 28.01 87.87 27.53 87.99 26.93 88.35 26.45 88.83 26.09 89.31 25.97 89.91 25.85"/><polygon points="83.43 23.81 83.55 23.21 83.91 22.61 84.27 22.13 84.87 21.77 85.47 21.53 86.07 21.41 86.79 21.53 87.39 21.77 87.99 22.13 88.35 22.61 88.71 23.21 88.83 23.81 88.83 24.53 88.71 25.13 88.35 25.73 87.99 26.21 87.39 26.57 86.79 26.81 86.07 26.93 85.47 26.81 84.87 26.57 84.27 26.21 83.91 25.73 83.55 25.13 83.43 24.53 83.43 23.81"/><polygon points="81.75 25.97 82.35 25.85 82.95 25.97 83.43 26.09 83.91 26.45 84.15 26.93 84.39 27.53 84.39 28.01 84.27 28.61 84.03 29.09 83.67 29.57 83.19 29.81 82.59 30.05 82.11 30.05 81.51 29.81 81.03 29.57 80.67 29.09 80.43 28.61 80.31 28.01 80.31 27.53 80.43 26.93 80.79 26.45 81.27 26.09 81.75 25.97"/><polygon points="75.87 23.81 75.99 23.21 76.35 22.61 76.71 22.13 77.31 21.77 77.91 21.53 78.51 21.41 79.23 21.53 79.83 21.77 80.43 22.13 80.79 22.61 81.15 23.21 81.27 23.81 81.27 24.53 81.15 25.13 80.79 25.73 80.43 26.21 79.83 26.57 79.23 26.81 78.51 26.93 77.91 26.81 77.31 26.57 76.71 26.21 76.35 25.73 75.99 25.13 75.87 24.53 75.87 23.81"/><polygon points="74.19 25.97 74.79 25.85 75.39 25.97 75.87 26.09 76.35 26.45 76.59 26.93 76.83 27.53 76.83 28.01 76.71 28.61 76.47 29.09 76.11 29.57 75.63 29.81 75.03 30.05 74.55 30.05 73.95 29.81 73.47 29.57 73.11 29.09 72.87 28.61 72.75 28.01 72.75 27.53 72.99 26.93 73.23 26.45 73.71 26.09 74.19 25.97"/><polygon points="68.31 23.81 68.43 23.21 68.79 22.61 69.15 22.13 69.75 21.77 70.35 21.53 71.07 21.41 71.67 21.53 72.27 21.77 72.87 22.13 73.23 22.61 73.59 23.21 73.71 23.81 73.71 24.53 73.59 25.13 73.23 25.73 72.87 26.21 72.27 26.57 71.67 26.81 71.07 26.93 70.35 26.81 69.75 26.57 69.15 26.21 68.79 25.73 68.43 25.13 68.31 24.53 68.31 23.81"/><polygon points="67.23 25.85 67.83 25.97 68.31 26.09 68.79 26.45 69.15 26.93 69.27 27.53 69.39 28.01 69.27 28.61 68.91 29.09 68.55 29.57 68.07 29.81 67.59 30.05 66.99 30.05 66.39 29.81 65.91 29.57 65.55 29.09 65.31 28.61 65.19 28.01 65.19 27.53 65.43 26.93 65.67 26.45 66.15 26.09 66.75 25.97 67.23 25.85"/><polygon points="60.75 23.81 60.87 23.21 61.23 22.61 61.71 22.13 62.19 21.77 62.79 21.53 63.51 21.41 64.11 21.53 64.71 21.77 65.31 22.13 65.79 22.61 66.03 23.21 66.15 23.81 66.15 24.53 66.03 25.13 65.79 25.73 65.31 26.21 64.71 26.57 64.11 26.81 63.51 26.93 62.79 26.81 62.19 26.57 61.71 26.21 61.23 25.73 60.87 25.13 60.75 24.53 60.75 23.81"/><polygon points="60.75 31.37 60.87 30.77 61.23 30.17 61.71 29.69 62.19 29.21 62.79 29.09 63.51 28.97 64.11 29.09 64.71 29.21 65.31 29.69 65.79 30.17 66.03 30.77 66.15 31.37 66.15 31.97 66.03 32.69 65.79 33.29 65.31 33.77 64.71 34.13 64.11 34.37 63.51 34.49 62.79 34.37 62.19 34.13 61.71 33.77 61.23 33.29 60.87 32.69 60.75 31.97 60.75 31.37"/><polygon points="60.75 38.93 60.87 38.21 61.23 37.73 61.71 37.13 62.19 36.77 62.79 36.53 63.51 36.53 64.11 36.53 64.71 36.77 65.31 37.13 65.79 37.73 66.03 38.21 66.15 38.93 66.15 39.53 66.03 40.25 65.79 40.85 65.31 41.33 64.71 41.69 64.11 41.93 63.51 41.93 62.79 41.93 62.19 41.69 61.71 41.33 61.23 40.85 60.87 40.25 60.75 39.53 60.75 38.93"/><polygon points="60.75 46.49 60.87 45.77 61.23 45.17 61.71 44.69 62.19 44.33 62.79 44.09 63.51 44.09 64.11 44.09 64.71 44.33 65.31 44.69 65.79 45.17 66.03 45.77 66.15 46.49 66.15 47.09 66.03 47.81 65.79 48.29 65.31 48.89 64.71 49.25 64.11 49.49 63.51 49.49 62.79 49.49 62.19 49.25 61.71 48.89 61.23 48.29 60.87 47.81 60.75 47.09 60.75 46.49"/><polygon points="60.75 54.05 60.87 53.33 61.23 52.73 61.71 52.25 62.19 51.89 62.79 51.65 63.51 51.53 64.11 51.65 64.71 51.89 65.31 52.25 65.79 52.73 66.03 53.33 66.15 54.05 66.15 54.65 66.03 55.25 65.79 55.85 65.31 56.33 64.71 56.81 64.11 57.05 63.51 57.05 62.79 57.05 62.19 56.81 61.71 56.33 61.23 55.85 60.87 55.25 60.75 54.65 60.75 54.05"/><polygon points="66.15 62.21 66.03 62.81 65.79 63.41 65.31 63.89 64.71 64.25 64.11 64.49 63.51 64.61 62.79 64.49 62.19 64.25 61.71 63.89 61.23 63.41 60.87 62.81 60.75 62.21 60.75 61.49 60.87 60.89 61.23 60.29 61.71 59.81 62.19 59.45 62.79 59.21 63.51 59.09 64.11 59.21 64.71 59.45 65.31 59.81 65.79 60.29 66.03 60.89 66.15 61.49 66.15 62.21"/><polygon points="67.59 60.17 66.99 60.17 66.39 60.05 65.91 59.69 65.55 59.33 65.31 58.85 65.19 58.25 65.19 57.65 65.43 57.17 65.67 56.69 66.15 56.33 66.75 56.09 67.23 55.97 67.83 56.09 68.31 56.33 68.79 56.69 69.15 57.17 69.27 57.65 69.39 58.25 69.27 58.85 68.91 59.33 68.55 59.69 68.07 60.05 67.59 60.17"/><polygon points="73.71 62.21 73.59 62.81 73.23 63.41 72.87 63.89 72.27 64.25 71.67 64.49 71.07 64.61 70.35 64.49 69.75 64.25 69.15 63.89 68.79 63.41 68.43 62.81 68.31 62.21 68.31 61.49 68.43 60.89 68.79 60.29 69.15 59.81 69.75 59.45 70.35 59.21 71.07 59.09 71.67 59.21 72.27 59.45 72.87 59.81 73.23 60.29 73.59 60.89 73.71 61.49 73.71 62.21"/><polygon points="75.03 60.17 74.55 60.17 73.95 60.05 73.47 59.69 73.11 59.33 72.87 58.85 72.75 58.25 72.75 57.65 72.99 57.17 73.23 56.69 73.71 56.33 74.19 56.09 74.79 55.97 75.39 56.09 75.87 56.33 76.35 56.69 76.59 57.17 76.83 57.65 76.83 58.25 76.71 58.85 76.47 59.33 76.11 59.69 75.63 60.05 75.03 60.17"/><polygon points="81.27 62.21 81.15 62.81 80.79 63.41 80.43 63.89 79.83 64.25 79.23 64.49 78.51 64.61 77.91 64.49 77.31 64.25 76.71 63.89 76.35 63.41 75.99 62.81 75.87 62.21 75.87 61.49 75.99 60.89 76.35 60.29 76.71 59.81 77.31 59.45 77.91 59.21 78.51 59.09 79.23 59.21 79.83 59.45 80.43 59.81 80.79 60.29 81.15 60.89 81.27 61.49 81.27 62.21"/><polygon points="82.59 60.17 82.11 60.17 81.51 60.05 81.03 59.69 80.67 59.33 80.43 58.85 80.31 58.25 80.31 57.65 80.43 57.17 80.79 56.69 81.27 56.33 81.75 56.09 82.35 55.97 82.95 56.09 83.43 56.33 83.91 56.69 84.15 57.17 84.39 57.65 84.39 58.25 84.27 58.85 84.03 59.33 83.67 59.69 83.19 60.05 82.59 60.17"/><polygon points="88.83 62.21 88.71 62.81 88.35 63.41 87.99 63.89 87.39 64.25 86.79 64.49 86.07 64.61 85.47 64.49 84.87 64.25 84.27 63.89 83.91 63.41 83.55 62.81 83.43 62.21 83.43 61.49 83.55 60.89 83.91 60.29 84.27 59.81 84.87 59.45 85.47 59.21 86.07 59.09 86.79 59.21 87.39 59.45 87.99 59.81 88.35 60.29 88.71 60.89 88.83 61.49 88.83 62.21"/><polygon points="90.15 60.17 89.55 60.17 89.07 60.05 88.59 59.69 88.23 59.33 87.87 58.85 87.75 58.25 87.87 57.65 87.99 57.17 88.35 56.69 88.83 56.33 89.31 56.09 89.91 55.97 90.39 56.09 90.99 56.33 91.35 56.69 91.71 57.17 91.95 57.65 91.95 58.25 91.83 58.85 91.59 59.33 91.23 59.69 90.75 60.05 90.15 60.17"/><polygon points="96.39 62.21 96.27 62.81 95.91 63.41 95.43 63.89 94.95 64.25 94.35 64.49 93.63 64.61 93.03 64.49 92.43 64.25 91.83 63.89 91.35 63.41 91.11 62.81 90.87 62.21 90.87 61.49 91.11 60.89 91.35 60.29 91.83 59.81 92.43 59.45 93.03 59.21 93.63 59.09 94.35 59.21 94.95 59.45 95.43 59.81 95.91 60.29 96.27 60.89 96.39 61.49 96.39 62.21"/><polygon points="97.71 60.17 97.11 60.17 96.63 60.05 96.15 59.69 95.67 59.33 95.43 58.85 95.31 58.25 95.43 57.65 95.55 57.17 95.91 56.69 96.39 56.33 96.87 56.09 97.47 55.97 97.95 56.09 98.55 56.33 98.91 56.69 99.27 57.17 99.51 57.65 99.51 58.25 99.39 58.85 99.15 59.33 98.79 59.69 98.31 60.05 97.71 60.17"/><polygon points="103.95 62.21 103.71 62.81 103.47 63.41 102.99 63.89 102.51 64.25 101.91 64.49 101.19 64.61 100.59 64.49 99.87 64.25 99.39 63.89 98.91 63.41 98.67 62.81 98.43 62.21 98.43 61.49 98.67 60.89 98.91 60.29 99.39 59.81 99.87 59.45 100.59 59.21 101.19 59.09 101.91 59.21 102.51 59.45 102.99 59.81 103.47 60.29 103.71 60.89 103.95 61.49 103.95 62.21"/><polygon points="103.95 54.65 103.71 55.25 103.47 55.85 102.99 56.33 102.51 56.81 101.91 57.05 101.19 57.05 100.59 57.05 99.87 56.81 99.39 56.33 98.91 55.85 98.67 55.25 98.43 54.65 98.43 54.05 98.67 53.33 98.91 52.73 99.39 52.25 99.87 51.89 100.59 51.65 101.19 51.53 101.91 51.65 102.51 51.89 102.99 52.25 103.47 52.73 103.71 53.33 103.95 54.05 103.95 54.65"/><polygon points="103.95 47.09 103.71 47.81 103.47 48.29 102.99 48.89 102.51 49.25 101.91 49.49 101.19 49.49 100.59 49.49 99.87 49.25 99.39 48.89 98.91 48.29 98.67 47.81 98.43 47.09 98.43 46.49 98.67 45.77 98.91 45.17 99.39 44.69 99.87 44.33 100.59 44.09 101.19 44.09 101.91 44.09 102.51 44.33 102.99 44.69 103.47 45.17 103.71 45.77 103.95 46.49 103.95 47.09"/><polygon points="103.95 39.53 103.71 40.25 103.47 40.85 102.99 41.33 102.51 41.69 101.91 41.93 101.19 41.93 100.59 41.93 99.87 41.69 99.39 41.33 98.91 40.85 98.67 40.25 98.43 39.53 98.43 38.93 98.67 38.21 98.91 37.73 99.39 37.13 99.87 36.77 100.59 36.53 101.19 36.53 101.91 36.53 102.51 36.77 102.99 37.13 103.47 37.73 103.71 38.21 103.95 38.93 103.95 39.53"/><polygon points="103.95 31.97 103.71 32.69 103.47 33.29 102.99 33.77 102.51 34.13 101.91 34.37 101.19 34.49 100.59 34.37 99.87 34.13 99.39 33.77 98.91 33.29 98.67 32.69 98.43 31.97 98.43 31.37 98.67 30.77 98.91 30.17 99.39 29.69 99.87 29.21 100.59 29.09 101.19 28.97 101.91 29.09 102.51 29.21 102.99 29.69 103.47 30.17 103.71 30.77 103.95 31.37 103.95 31.97"/><polygon points="103.95 24.53 103.71 25.13 103.47 25.73 102.99 26.21 102.51 26.57 101.91 26.81 101.19 26.93 100.59 26.81 99.87 26.57 99.39 26.21 98.91 25.73 98.67 25.13 98.43 24.53 98.43 23.81 98.67 23.21 98.91 22.61 99.39 22.13 99.87 21.77 100.59 21.53 101.19 21.41 101.91 21.53 102.51 21.77 102.99 22.13 103.47 22.61 103.71 23.21 103.95 23.81 103.95 24.53"/><line class="e8f5d6db-551e-4609-87ee-892ff3b26b5a" x1="177.75" y1="124.49" x2="177.75" y2="124.25"/><path class="b098dfca-c1ea-4534-a379-dbb5d0359405" d="M74.57,82.86H62.44a3,3,0,0,0-3,3V98a3,3,0,0,0,3,3H74.57a3,3,0,0,0,3-3V85.89A3,3,0,0,0,74.57,82.86Zm.31,9.22a.5.5,0,0,1-.71,0,.5.5,0,0,1-.15-.32l-1.37-1.38v-3.1A.25.25,0,0,0,72.4,87h-.51a.25.25,0,0,0-.25.25v2.13l-.76-.8-2.37-2.34a.25.25,0,0,0-.36,0h0l-5.33,5.36a.25.25,0,0,0,0,.36h0l.36.36a.24.24,0,0,0,.35,0h0l4.11-4.11a1,1,0,0,1,1.44,0l4.11,4.11a1,1,0,0,1,0,1.43l-.36.36a1,1,0,0,1-1.43,0l-2.89-2.86a.26.26,0,0,0-.36,0h0l-2.83,2.86a.24.24,0,0,0,0,.35h0l.36.36a.24.24,0,0,0,.35,0h0l1.61-1.61a1,1,0,0,1,1.44,0l1.6,1.61a1,1,0,0,1,0,1.43L69,98a.48.48,0,0,1-.15.32.5.5,0,0,1-.71,0h0a.51.51,0,0,1,0-.72.5.5,0,0,1,.33-.14l1.72-1.74a.25.25,0,0,0,0-.35h0l-1.63-1.62a.25.25,0,0,0-.36,0h0l-1.58,1.61a1,1,0,0,1-1.43,0L64.78,95a1,1,0,0,1,0-1.43l2.86-2.86a1,1,0,0,1,1.44,0l2.85,2.86a.25.25,0,0,0,.36,0h0l.36-.36a.24.24,0,0,0,0-.35h0l-4.14-4.12a.27.27,0,0,0-.36,0h0l-4.08,4.12a1,1,0,0,1-1.43,0l-.36-.36a1,1,0,0,1,0-1.43l5.36-5.37a1,1,0,0,1,1.44,0l1.8,1.81v-.26a1,1,0,0,1,1-1h.53a1,1,0,0,1,1,1v2.78l1.16,1.14a.52.52,0,0,1,.48.54.53.53,0,0,1-.15.33Z"/><path class="b098dfca-c1ea-4534-a379-dbb5d0359405" d="M145.86,85.89h1.82v.57h-.59v1.71h-.66V86.46h-.57Zm2,0h.76l.52,1.22.48-1.22h.76v2.28h-.6V86.89L149.38,88h-.49l-.43-1.06v1.28h-.6Z"/><path class="b098dfca-c1ea-4534-a379-dbb5d0359405" d="M92.85,85.89V98h-2.7v-5H84.84v5H82.16V85.89h2.7v4.79h5.3V85.89ZM94.5,92a6,6,0,0,1,5.82-6.07h.36a6,6,0,0,1,6.16,5.71V92A5.93,5.93,0,0,1,101,98h-.36a5.94,5.94,0,0,1-6.17-5.72C94.5,92.2,94.5,92.08,94.5,92Zm9.65.06a3.5,3.5,0,0,0-7-.32V92a3.5,3.5,0,1,0,7,.33Zm3.79-.06a6.17,6.17,0,1,1,6.17,6.17A6.17,6.17,0,0,1,107.94,92Zm9.65.06a3.49,3.49,0,1,0-7-.46,3.53,3.53,0,0,0,0,.46,3.49,3.49,0,1,0,7,.46A3.53,3.53,0,0,0,117.59,92Zm15,2.69c0,2.1-1.6,3.32-4.66,3.32h-6.07V85.89h5.77c2.91,0,4.41,1.27,4.41,3.16a2.93,2.93,0,0,1-1.52,2.67,3,3,0,0,1,2.09,3Zm-7.88-6.47V91h2.58c1.25,0,1.94-.46,1.94-1.38s-.69-1.35-1.94-1.35Zm5.08,6.14c0-1-.72-1.45-2.06-1.45h-3V95.8h3C129.1,95.8,129.82,95.37,129.82,94.38Zm3.63,2.27.89-2a6.52,6.52,0,0,0,3.72,1.23c1.52,0,2.17-.54,2.17-1.26,0-2.2-6.55-.69-6.55-5,0-2,1.51-3.65,4.75-3.65a7.29,7.29,0,0,1,3.91,1L141.53,89a6.14,6.14,0,0,0-3.12-.92c-1.52,0-2.14.61-2.14,1.34,0,2.16,6.55.67,6.55,5,0,2-1.56,3.64-4.78,3.64a7.9,7.9,0,0,1-4.59-1.36Z"/></g></g></svg>