<svg id="b558ab4f-6bc5-4ab9-bacf-6b9d22227c97" data-name="Ebene 1" xmlns="http://www.w3.org/2000/svg" viewBox="0 0 19.21 252.67"><defs><style>.e7ce68c9-986c-480e-b304-eebecbf796be{fill:#ccc;}.bbf06442-cc52-4af5-9421-dda63389a0b9,.bcfe852a-6169-4646-b18c-301460d9598a,.e7ce68c9-986c-480e-b304-eebecbf796be{stroke:#000;stroke-miterlimit:10;}.bcfe852a-6169-4646-b18c-301460d9598a{fill:#fff;}.bbf06442-cc52-4af5-9421-dda63389a0b9{fill:none;}</style></defs><title>HOOBS_SETUP_microusb_cable</title><rect class="e7ce68c9-986c-480e-b304-eebecbf796be" x="4.85" y="5.76" width="9.99" height="8.97"/><polygon class="bcfe852a-6169-4646-b18c-301460d9598a" points="16.67 14.73 2.79 14.73 2.79 35.94 6.55 49.05 13.14 49.05 16.67 35.94 16.67 14.73"/><line class="bbf06442-cc52-4af5-9421-dda63389a0b9" x1="6.15" y1="7.38" x2="6.15" y2="13.3"/><line class="bbf06442-cc52-4af5-9421-dda63389a0b9" x1="13.6" y1="7.74" x2="13.6" y2="13.66"/><line class="bbf06442-cc52-4af5-9421-dda63389a0b9" x1="7.54" y1="7.38" x2="7.54" y2="11.47"/><line class="bbf06442-cc52-4af5-9421-dda63389a0b9" x1="12.07" y1="7.38" x2="12.07" y2="11.47"/><rect class="bcfe852a-6169-4646-b18c-301460d9598a" x="7.54" y="49.05" width="4.53" height="201.91"/><path id="abc1343a-d915-4622-a47a-6ba3917bb066" data-name="path1334" d="M9.73,21,8.9,22.48h.59v7.41L8,28.45A.71.71,0,0,1,7.8,28V26.79a.73.73,0,0,0-.24-1.41.72.72,0,0,0-.24,1.41V28a1.41,1.41,0,0,0,.38.88s0,0,0,0L9.32,30.4a.71.71,0,0,1,.17.45v.83a1.21,1.21,0,1,0,.48,0v-.82h0V29a.77.77,0,0,1,.17-.44l1.62-1.53s0,0,0,0a1.37,1.37,0,0,0,.39-.89V25h.49V23.57H11.18V25h.49v1.17a.92.92,0,0,1-.17.45L10,28.08v-5.6h.6Z"/></svg>