<svg id="b241c6ba-3225-45fa-a62c-043a00e00950" data-name="Ebene 1" xmlns="http://www.w3.org/2000/svg" viewBox="0 0 31.07 255.43"><defs><style>.a1a2fb19-ebbb-44f4-bdae-d549cf3e7ff4{fill:#fff;}.a1a2fb19-ebbb-44f4-bdae-d549cf3e7ff4,.ba459069-f3a2-4ebf-b8da-84a446929039{stroke:#000;stroke-miterlimit:10;}.ba459069-f3a2-4ebf-b8da-84a446929039{fill:#ccc;}</style></defs><title>HOOBS_SETUP_ethernet_cable</title><polygon class="a1a2fb19-ebbb-44f4-bdae-d549cf3e7ff4" points="27.69 44.34 23.81 66.82 8.26 66.82 3.86 44.34 3.86 6.82 27.69 6.82 27.69 44.34"/><rect class="ba459069-f3a2-4ebf-b8da-84a446929039" x="7.16" y="6.98" width="17.25" height="8.02"/><line class="a1a2fb19-ebbb-44f4-bdae-d549cf3e7ff4" x1="6.88" y1="47.68" x2="24.84" y2="47.82"/><line class="a1a2fb19-ebbb-44f4-bdae-d549cf3e7ff4" x1="24.41" y1="51.64" x2="7.16" y2="51.64"/><line class="a1a2fb19-ebbb-44f4-bdae-d549cf3e7ff4" x1="8.15" y1="55.31" x2="23.85" y2="55.31"/><line class="a1a2fb19-ebbb-44f4-bdae-d549cf3e7ff4" x1="23" y1="59.13" x2="8.86" y2="59.13"/><line class="a1a2fb19-ebbb-44f4-bdae-d549cf3e7ff4" x1="8.86" y1="62.67" x2="23" y2="62.67"/><rect class="a1a2fb19-ebbb-44f4-bdae-d549cf3e7ff4" x="3.86" y="32.94" width="23.83" height="11.4"/><rect class="a1a2fb19-ebbb-44f4-bdae-d549cf3e7ff4" x="8.89" y="35.25" width="14.21" height="6.8"/><rect class="a1a2fb19-ebbb-44f4-bdae-d549cf3e7ff4" x="11.04" y="4.05" width="9.52" height="14.24"/><polygon class="a1a2fb19-ebbb-44f4-bdae-d549cf3e7ff4" points="19.54 38.64 12.02 38.64 11.02 18.3 20.54 18.3 19.54 38.64"/><rect class="a1a2fb19-ebbb-44f4-bdae-d549cf3e7ff4" x="11.01" y="66.82" width="9.99" height="184.14"/></svg>