<svg xmlns="http://www.w3.org/2000/svg" viewBox="0 0 24.83 247.91"><defs><style>.bd17d142-0e58-469c-a02d-56e6e9097641{fill:#fff;}.a90ce22e-9a33-424d-b37c-bf7cf1c35ef3,.bd17d142-0e58-469c-a02d-56e6e9097641{stroke:#000;stroke-miterlimit:10;}.a90ce22e-9a33-424d-b37c-bf7cf1c35ef3{fill:#ccc;}</style></defs><title>HOOBS_SETUP_Ethernetcable</title><g id="fec43488-e609-497f-a221-1107342eb117" data-name="Ebene 2"><g id="b20f42cc-add3-46fe-b3cc-8e516e3b67fe" data-name="Ebene 1"><polygon class="bd17d142-0e58-469c-a02d-56e6e9097641" points="24.33 40.79 20.44 63.27 4.89 63.27 0.5 40.79 0.5 3.27 24.33 3.27 24.33 40.79"/><rect class="a90ce22e-9a33-424d-b37c-bf7cf1c35ef3" x="3.8" y="3.43" width="17.25" height="8.02"/><line class="bd17d142-0e58-469c-a02d-56e6e9097641" x1="3.51" y1="44.13" x2="21.47" y2="44.27"/><line class="bd17d142-0e58-469c-a02d-56e6e9097641" x1="21.05" y1="48.09" x2="3.8" y2="48.09"/><line class="bd17d142-0e58-469c-a02d-56e6e9097641" x1="4.79" y1="51.76" x2="20.48" y2="51.76"/><line class="bd17d142-0e58-469c-a02d-56e6e9097641" x1="19.64" y1="55.58" x2="5.49" y2="55.58"/><line class="bd17d142-0e58-469c-a02d-56e6e9097641" x1="5.49" y1="59.12" x2="19.64" y2="59.12"/><rect class="bd17d142-0e58-469c-a02d-56e6e9097641" x="0.5" y="29.39" width="23.83" height="11.4"/><rect class="bd17d142-0e58-469c-a02d-56e6e9097641" x="5.53" y="31.69" width="14.21" height="6.8"/><rect class="bd17d142-0e58-469c-a02d-56e6e9097641" x="7.68" y="0.5" width="9.52" height="14.24"/><polygon class="bd17d142-0e58-469c-a02d-56e6e9097641" points="16.18 35.09 8.66 35.09 7.66 14.74 17.18 14.74 16.18 35.09"/><rect class="bd17d142-0e58-469c-a02d-56e6e9097641" x="7.65" y="63.27" width="9.99" height="184.14"/></g></g></svg>