<svg xmlns="http://www.w3.org/2000/svg" viewBox="0 0 14.88 246.2"><defs><style>.b3a4cc8b-faca-4518-ba50-37264e855933{fill:#ccc;}.a61f05e9-0abb-495b-9e06-c49316d12bef,.b3a4cc8b-faca-4518-ba50-37264e855933,.f8b91d05-6782-4873-bef6-76513a334e80{stroke:#000;stroke-miterlimit:10;}.f8b91d05-6782-4873-bef6-76513a334e80{fill:#fff;}.a61f05e9-0abb-495b-9e06-c49316d12bef{fill:none;}</style></defs><title>HOOBS_SETUP_microusbcable</title><g id="abb88490-5d82-4eee-86ea-96c6d01ccf7e" data-name="Ebene 2"><g id="ffdf1091-4acf-444d-8af8-c5dcba6d0c71" data-name="Ebene 1"><rect class="b3a4cc8b-faca-4518-ba50-37264e855933" x="2.56" y="0.5" width="9.99" height="8.97"/><polygon class="f8b91d05-6782-4873-bef6-76513a334e80" points="14.38 9.47 0.5 9.47 0.5 30.68 4.25 43.79 10.85 43.79 14.38 30.68 14.38 9.47"/><line class="a61f05e9-0abb-495b-9e06-c49316d12bef" x1="3.86" y1="2.11" x2="3.86" y2="8.04"/><line class="a61f05e9-0abb-495b-9e06-c49316d12bef" x1="11.31" y1="2.48" x2="11.31" y2="8.4"/><line class="a61f05e9-0abb-495b-9e06-c49316d12bef" x1="5.24" y1="2.11" x2="5.24" y2="6.21"/><line class="a61f05e9-0abb-495b-9e06-c49316d12bef" x1="9.78" y1="2.11" x2="9.78" y2="6.21"/><rect class="f8b91d05-6782-4873-bef6-76513a334e80" x="5.24" y="43.79" width="4.53" height="201.91"/><path id="a1087e2c-711d-4933-8c70-f1a0febea5d9" data-name="path1334" d="M7.44,15.77,6.6,17.22h.6v7.41L5.68,23.19a.76.76,0,0,1-.17-.45V21.53a.73.73,0,0,0-.24-1.41A.72.72,0,0,0,5,21.53v1.19a1.36,1.36,0,0,0,.38.89h0L7,25.14a.71.71,0,0,1,.17.44v.84a1.21,1.21,0,1,0,.48,0V25.6h0V23.77a.76.76,0,0,1,.17-.45l1.62-1.53h0a1.32,1.32,0,0,0,.38-.88V19.76h.49V18.31H8.89v1.45h.49s0,.3,0,1.17a.76.76,0,0,1-.17.45L7.68,22.82v-5.6h.6Z"/></g></g></svg>