<svg xmlns="http://www.w3.org/2000/svg" viewBox="0 0 120 24"><defs><style>.f4a7f49a-f8cb-4b77-a867-2ce2ff6fec34{fill:#f6b414;}</style></defs><title>HOOBS_SETUP_Logo</title><g id="abec71b9-3d86-4af2-b862-2c473508480f" data-name="Ebene 2"><g id="f6d49802-f6ed-47f3-a805-3f39d3a951f7" data-name="Ebene 1"><path class="f4a7f49a-f8cb-4b77-a867-2ce2ff6fec34" d="M20,0H4A4,4,0,0,0,0,4V20a4,4,0,0,0,4,4H20a4,4,0,0,0,4-4V4A4,4,0,0,0,20,0Zm.41,12.16a.68.68,0,0,1-.95,0,.7.7,0,0,1-.19-.43L17.46,9.92V5.83a.33.33,0,0,0-.33-.33h-.67a.33.33,0,0,0-.33.33V8.64l-1-1.06L12,4.5a.33.33,0,0,0-.47,0h0l-7,7.07a.33.33,0,0,0,0,.47h0l.47.47a.33.33,0,0,0,.47,0h0l5.42-5.42a1.34,1.34,0,0,1,1.89,0l5.42,5.42a1.34,1.34,0,0,1,0,1.89l-.47.47a1.34,1.34,0,0,1-1.89,0L12,11.1a.33.33,0,0,0-.47,0h0L7.8,14.87a.33.33,0,0,0,0,.47h0l.47.47a.33.33,0,0,0,.47,0h0l2.12-2.12a1.34,1.34,0,0,1,1.89,0l2.12,2.12a1.34,1.34,0,0,1,0,1.89L12.59,20a.67.67,0,0,1-1.13.44h0a.67.67,0,0,1,.43-1.14L14.16,17a.33.33,0,0,0,0-.47h0L12,14.4a.33.33,0,0,0-.47,0h0L9.45,16.52a1.34,1.34,0,0,1-1.89,0l-.47-.47a1.34,1.34,0,0,1,0-1.89l3.77-3.77a1.34,1.34,0,0,1,1.89,0l3.77,3.77a.33.33,0,0,0,.47,0h0l.47-.47a.33.33,0,0,0,0-.47h0L12,7.8a.33.33,0,0,0-.47,0h0L6.15,13.22a1.34,1.34,0,0,1-1.89,0l-.47-.47a1.34,1.34,0,0,1,0-1.89l7.07-7.07a1.34,1.34,0,0,1,1.89,0l2.38,2.38V5.83A1.32,1.32,0,0,1,16.44,4.5h.69a1.34,1.34,0,0,1,1.33,1.33V9.5L20,11a.67.67,0,0,1,.62.71.68.68,0,0,1-.19.43Z"/><path class="f4a7f49a-f8cb-4b77-a867-2ce2ff6fec34" d="M114,4h2.4v.75h-.77V7h-.87V4.75H114Zm2.68,0h1l.69,1.6L119,4h1V7h-.79V5.31l-.57,1.4H118l-.57-1.4V7h-.79Z"/><path class="f4a7f49a-f8cb-4b77-a867-2ce2ff6fec34" d="M44.1,4V20H40.54V13.44h-7V20H30V4h3.56v6.31h7V4Zm2.18,8A7.83,7.83,0,0,1,54,4h.47a7.83,7.83,0,0,1,8.13,7.52V12a7.82,7.82,0,0,1-7.65,8,3.84,3.84,0,0,1-.48,0,7.84,7.84,0,0,1-8.14-7.53ZM59,12.08a4.61,4.61,0,0,0-9.21-.43,3.09,3.09,0,0,0,0,.43,4.61,4.61,0,0,0,9.21.43A3.09,3.09,0,0,0,59,12.08ZM64,12a8.13,8.13,0,1,1,8.13,8.13A8.13,8.13,0,0,1,64,12Zm12.73.08a4.61,4.61,0,0,0-9.2-.61c0,.21,0,.41,0,.61a4.61,4.61,0,0,0,9.2.61C76.74,12.48,76.74,12.28,76.73,12.08Zm19.81,3.55c0,2.77-2.1,4.37-6.14,4.37h-8V4H90c3.84,0,5.82,1.67,5.82,4.16a3.85,3.85,0,0,1-2,3.52,3.93,3.93,0,0,1,2.75,4ZM86.16,7.09V10.7h3.39c1.66,0,2.56-.61,2.56-1.82s-.9-1.79-2.56-1.79Zm6.69,8.1c0-1.29-.95-1.91-2.72-1.91h-4v3.79h4C91.9,17.07,92.85,16.5,92.85,15.19Zm4.79,3,1.17-2.7a8.49,8.49,0,0,0,4.91,1.62c2,0,2.86-.71,2.86-1.66,0-2.9-8.64-.91-8.64-6.65,0-2.63,2-4.82,6.26-4.82a9.67,9.67,0,0,1,5.16,1.37L108.3,8.09a8.12,8.12,0,0,0-4.12-1.22c-2,0-2.82.8-2.82,1.77,0,2.85,8.64.88,8.64,6.56,0,2.59-2.06,4.8-6.31,4.8a10.35,10.35,0,0,1-6-1.79Z"/></g></g></svg>