<svg xmlns="http://www.w3.org/2000/svg" viewBox="0 0 182.5 118.5"><defs><style>.b20c1024-d55b-4126-a481-8ea976cf3131{fill:#999;}.e2a712da-af64-44ae-aef5-533840684ce8{fill:#09622b;stroke:#000;}.bf1f4063-ffbd-43c0-8f03-f4f4877f32d8{fill:#333;}.ea1bf549-a22d-41e6-a5ef-d8aa0651e38a{fill:#ccc;}.bb1af446-7d23-448f-a60b-48abd13854ee{fill:#bacb78;}</style></defs><title>HOOBS_SETUP_rpi_board_flipped</title><g id="ae6c024f-0672-4521-a3b1-0ebb6652d230" data-name="Ebene 2"><g id="b22feb09-8873-4f41-bc7d-848e1664905c" data-name="Ebene 1"><rect class="b20c1024-d55b-4126-a481-8ea976cf3131" x="14.75" y="1.25" width="17.5" height="14.5"/><path d="M32,1.5v14H15V1.5H32m.5-.5h-18V16h18V1Z"/><rect class="b20c1024-d55b-4126-a481-8ea976cf3131" x="47.75" y="1.25" width="12.5" height="16.5"/><path d="M60,1.5v16H48V1.5H60m.5-.5h-13V18h13V1Z"/><rect class="b20c1024-d55b-4126-a481-8ea976cf3131" x="75.75" y="1.25" width="12.5" height="16.5"/><path d="M88,1.5v16H76V1.5H88m.5-.5h-13V18h13V1Z"/><rect class="b20c1024-d55b-4126-a481-8ea976cf3131" x="104.75" y="0.25" width="12.5" height="29.5"/><path d="M117,.5v29H105V.5h12m.5-.5h-13V30h13V0Z"/><rect class="b20c1024-d55b-4126-a481-8ea976cf3131" x="145.75" y="8.25" width="36.5" height="26.5"/><path d="M182,8.5v26H146V8.5h36m.5-.5h-37V35h37V8Z"/><rect class="b20c1024-d55b-4126-a481-8ea976cf3131" x="145.75" y="45.25" width="36.5" height="26.5"/><path d="M182,45.5v26H146v-26h36m.5-.5h-37V72h37V45Z"/><rect class="b20c1024-d55b-4126-a481-8ea976cf3131" x="133.75" y="80.25" width="46.5" height="31.5"/><path d="M180,80.5v31H134v-31h46m.5-.5h-47v32h47V80Z"/><path class="e2a712da-af64-44ae-aef5-533840684ce8" d="M172.5,109.24V12.76A8.76,8.76,0,0,0,163.74,4H9.26A8.76,8.76,0,0,0,.5,12.76v96.48A8.76,8.76,0,0,0,9.26,118H163.74A8.76,8.76,0,0,0,172.5,109.24ZM10.5,12a3,3,0,1,1-3-3A3,3,0,0,1,10.5,12Zm0,98a3,3,0,1,1-3-3A3,3,0,0,1,10.5,110Zm118-98a3,3,0,1,1-3-3A3,3,0,0,1,128.5,12Zm0,98a3,3,0,1,1-3-3A3,3,0,0,1,128.5,110Z"/><rect class="b20c1024-d55b-4126-a481-8ea976cf3131" x="4.25" y="49.75" width="26.5" height="23.5"/><path d="M30.5,50V73H4.5V50h26m.5-.5H4v24H31v-24Z"/><rect class="bf1f4063-ffbd-43c0-8f03-f4f4877f32d8" x="75" y="58.5" width="27" height="27"/><rect class="ea1bf549-a22d-41e6-a5ef-d8aa0651e38a" x="14.25" y="104.75" width="102.5" height="10.5"/><path d="M116.5,105v10H14.5V105h102m.5-.5H14v11H117v-11Z"/><path class="bb1af446-7d23-448f-a60b-48abd13854ee" d="M7.5,6.62A5.5,5.5,0,0,0,1.88,12,5.5,5.5,0,0,0,7.5,17.38,5.5,5.5,0,0,0,13.12,12,5.5,5.5,0,0,0,7.5,6.62Zm0,8.52A3.22,3.22,0,0,1,4.22,12,3.22,3.22,0,0,1,7.5,8.86,3.22,3.22,0,0,1,10.78,12,3.22,3.22,0,0,1,7.5,15.14Z"/><path class="bb1af446-7d23-448f-a60b-48abd13854ee" d="M125.5,6.62A5.5,5.5,0,0,0,119.88,12a5.63,5.63,0,0,0,11.24,0A5.5,5.5,0,0,0,125.5,6.62Zm0,8.52A3.22,3.22,0,0,1,122.22,12a3.28,3.28,0,0,1,6.56,0A3.22,3.22,0,0,1,125.5,15.14Z"/><path class="bb1af446-7d23-448f-a60b-48abd13854ee" d="M125.5,104.62a5.39,5.39,0,1,0,5.62,5.38A5.5,5.5,0,0,0,125.5,104.62Zm0,8.52a3.14,3.14,0,1,1,3.28-3.14A3.22,3.22,0,0,1,125.5,113.14Z"/><path class="bb1af446-7d23-448f-a60b-48abd13854ee" d="M7.5,104.62a5.39,5.39,0,1,0,0,10.76,5.39,5.39,0,1,0,0-10.76Zm0,8.52a3.14,3.14,0,1,1,0-6.28,3.14,3.14,0,1,1,0,6.28Z"/></g></g></svg>