<svg id="b8d207d8-b1d3-452d-9ace-cae3c7d56e26" data-name="Ebene 1" xmlns="http://www.w3.org/2000/svg" viewBox="0 0 188.47 130.09"><defs><style>.ef1fd5f5-1071-4dcb-badd-f85331bdca9a{fill:#fff;}.a07ec09d-5535-4cf3-ad71-bed31b05d5b8,.e82c1310-c0c1-4ef6-ac39-a7967ade8700{fill:none;stroke:#000;stroke-miterlimit:10;}.e82c1310-c0c1-4ef6-ac39-a7967ade8700{stroke-width:0.25px;}.f1daedbc-d961-4c2a-8b04-1d011e25847d{fill:#f6b414;}</style></defs><title>HOOBS_SETUP_box</title><path class="ef1fd5f5-1071-4dcb-badd-f85331bdca9a" d="M176.87,2.93H8.49A6.81,6.81,0,0,0,1.68,9.74V120.11a6.81,6.81,0,0,0,6.81,6.82H167.87a6.81,6.81,0,0,0,6.81-6.82V77.93h2.19a6.81,6.81,0,0,0,6.81-6.82V9.74A6.81,6.81,0,0,0,176.87,2.93Z"/><path class="a07ec09d-5535-4cf3-ad71-bed31b05d5b8" d="M176.87,2.93H8.49A6.81,6.81,0,0,0,1.68,9.74V120.11a6.81,6.81,0,0,0,6.81,6.82H167.87a6.81,6.81,0,0,0,6.81-6.82V77.93h2.19a6.81,6.81,0,0,0,6.81-6.82V9.74A6.81,6.81,0,0,0,176.87,2.93Z"/><polygon points="98.05 28.39 98.65 28.27 99.13 28.39 99.73 28.51 100.09 28.87 100.45 29.35 100.69 29.95 100.69 30.43 100.57 31.03 100.33 31.51 99.97 31.99 99.49 32.23 98.89 32.47 98.29 32.47 97.81 32.23 97.33 31.99 96.85 31.51 96.61 31.03 96.49 30.43 96.61 29.95 96.73 29.35 97.09 28.87 97.57 28.51 98.05 28.39"/><polygon points="71.53 46.51 72.25 46.51 72.85 46.51 73.45 46.75 74.05 47.11 74.41 47.59 74.77 48.19 74.89 48.91 74.89 49.51 74.77 50.23 74.41 50.71 74.05 51.31 73.45 51.67 72.85 51.91 72.25 51.91 71.53 51.91 70.93 51.67 70.33 51.31 69.97 50.71 69.61 50.23 69.49 49.51 69.49 48.91 69.61 48.19 69.97 47.59 70.33 47.11 70.93 46.75 71.53 46.51"/><polygon points="70.33 43.75 69.97 43.27 69.61 42.67 69.49 41.95 69.49 41.35 69.61 40.63 69.97 40.15 70.33 39.55 70.93 39.19 71.53 38.95 72.25 38.95 72.85 38.95 73.45 39.19 74.05 39.55 74.41 40.15 74.77 40.63 74.89 41.35 74.89 41.95 74.77 42.67 74.41 43.27 74.05 43.75 73.45 44.11 72.85 44.35 72.25 44.35 71.53 44.35 70.93 44.11 70.33 43.75"/><polygon points="74.65 47.11 74.29 46.63 74.05 46.15 73.93 45.55 73.93 44.95 74.17 44.47 74.41 43.99 74.89 43.63 75.37 43.39 75.97 43.39 76.57 43.39 77.05 43.63 77.53 43.99 77.77 44.47 78.01 44.95 78.01 45.55 77.89 46.15 77.65 46.63 77.29 47.11 76.81 47.35 76.21 47.47 75.73 47.47 75.13 47.35 74.65 47.11"/><polygon points="77.05 41.95 77.05 41.35 77.17 40.63 77.53 40.15 77.89 39.55 78.49 39.19 79.09 38.95 79.69 38.95 80.41 38.95 81.01 39.19 81.61 39.55 81.97 40.15 82.33 40.63 82.45 41.35 82.45 41.95 82.33 42.67 81.97 43.27 81.61 43.75 81.01 44.11 80.41 44.35 79.69 44.35 79.09 44.35 78.49 44.11 77.89 43.75 77.53 43.27 77.17 42.67 77.05 41.95"/><polygon points="77.05 48.91 77.17 48.19 77.53 47.59 77.89 47.11 78.49 46.75 79.09 46.51 79.69 46.51 80.41 46.51 81.01 46.75 81.61 47.11 81.97 47.59 82.33 48.19 82.45 48.91 82.45 49.51 82.33 50.23 81.97 50.71 81.61 51.31 81.01 51.67 80.41 51.91 79.69 51.91 79.09 51.91 78.49 51.67 77.89 51.31 77.53 50.71 77.17 50.23 77.05 49.51 77.05 48.91"/><polygon points="82.21 47.11 81.85 46.63 81.61 46.15 81.49 45.55 81.49 44.95 81.61 44.47 81.97 43.99 82.45 43.63 82.93 43.39 83.53 43.39 84.13 43.39 84.61 43.63 85.09 43.99 85.33 44.47 85.57 44.95 85.57 45.55 85.45 46.15 85.21 46.63 84.85 47.11 84.37 47.35 83.77 47.47 83.29 47.47 82.69 47.35 82.21 47.11"/><polygon points="84.61 41.95 84.61 41.35 84.73 40.63 85.09 40.15 85.45 39.55 86.05 39.19 86.65 38.95 87.25 38.95 87.97 38.95 88.57 39.19 89.17 39.55 89.53 40.15 89.89 40.63 90.01 41.35 90.01 41.95 89.89 42.67 89.53 43.27 89.17 43.75 88.57 44.11 87.97 44.35 87.25 44.35 86.65 44.35 86.05 44.11 85.45 43.75 85.09 43.27 84.73 42.67 84.61 41.95"/><polygon points="84.61 48.91 84.73 48.19 85.09 47.59 85.45 47.11 86.05 46.75 86.65 46.51 87.25 46.51 87.97 46.51 88.57 46.75 89.17 47.11 89.53 47.59 89.89 48.19 90.01 48.91 90.01 49.51 89.89 50.23 89.53 50.71 89.17 51.31 88.57 51.67 87.97 51.91 87.25 51.91 86.65 51.91 86.05 51.67 85.45 51.31 85.09 50.71 84.73 50.23 84.61 49.51 84.61 48.91"/><polygon points="89.77 47.11 89.41 46.63 89.05 46.15 88.93 45.55 89.05 44.95 89.17 44.47 89.53 43.99 90.01 43.63 90.49 43.39 91.09 43.39 91.57 43.39 92.17 43.63 92.53 43.99 92.89 44.47 93.13 44.95 93.13 45.55 93.01 46.15 92.77 46.63 92.41 47.11 91.93 47.35 91.33 47.47 90.73 47.47 90.25 47.35 89.77 47.11"/><polygon points="92.05 48.91 92.29 48.19 92.53 47.59 93.01 47.11 93.61 46.75 94.21 46.51 94.81 46.51 95.53 46.51 96.13 46.75 96.61 47.11 97.09 47.59 97.45 48.19 97.57 48.91 97.57 49.51 97.45 50.23 97.09 50.71 96.61 51.31 96.13 51.67 95.53 51.91 94.81 51.91 94.21 51.91 93.61 51.67 93.01 51.31 92.53 50.71 92.29 50.23 92.05 49.51 92.05 48.91"/><polygon points="95.53 44.35 94.81 44.35 94.21 44.35 93.61 44.11 93.01 43.75 92.53 43.27 92.29 42.67 92.05 41.95 92.05 41.35 92.29 40.63 92.53 40.15 93.01 39.55 93.61 39.19 94.21 38.95 94.81 38.95 95.53 38.95 96.13 39.19 96.61 39.55 97.09 40.15 97.45 40.63 97.57 41.35 97.57 41.95 97.45 42.67 97.09 43.27 96.61 43.75 96.13 44.11 95.53 44.35"/><polygon points="95.53 36.79 94.81 36.91 94.21 36.79 93.61 36.55 93.01 36.19 92.53 35.71 92.29 35.11 92.05 34.39 92.05 33.79 92.29 33.19 92.53 32.59 93.01 32.11 93.61 31.63 94.21 31.51 94.81 31.39 95.53 31.51 96.13 31.63 96.61 32.11 97.09 32.59 97.45 33.19 97.57 33.79 97.57 34.39 97.45 35.11 97.09 35.71 96.61 36.19 96.13 36.55 95.53 36.79"/><polygon points="92.17 36.07 92.53 36.43 92.89 36.91 93.13 37.51 93.13 37.99 93.01 38.59 92.77 39.07 92.41 39.55 91.93 39.79 91.33 39.91 90.73 39.91 90.25 39.79 89.77 39.55 89.41 39.07 89.05 38.59 88.93 37.99 89.05 37.51 89.17 36.91 89.53 36.43 90.01 36.07 90.49 35.83 91.09 35.83 91.57 35.83 92.17 36.07"/><polygon points="90.01 34.39 89.89 35.11 89.53 35.71 89.17 36.19 88.57 36.55 87.97 36.79 87.25 36.91 86.65 36.79 86.05 36.55 85.45 36.19 85.09 35.71 84.73 35.11 84.61 34.39 84.61 33.79 84.73 33.19 85.09 32.59 85.45 32.11 86.05 31.63 86.65 31.51 87.25 31.39 87.97 31.51 88.57 31.63 89.17 32.11 89.53 32.59 89.89 33.19 90.01 33.79 90.01 34.39"/><polygon points="85.09 36.43 85.33 36.91 85.57 37.51 85.57 37.99 85.45 38.59 85.21 39.07 84.85 39.55 84.37 39.79 83.77 39.91 83.29 39.91 82.69 39.79 82.21 39.55 81.85 39.07 81.61 38.59 81.49 37.99 81.49 37.51 81.61 36.91 81.97 36.43 82.45 36.07 82.93 35.83 83.53 35.83 84.13 35.83 84.61 36.07 85.09 36.43"/><polygon points="82.45 34.39 82.33 35.11 81.97 35.71 81.61 36.19 81.01 36.55 80.41 36.79 79.69 36.91 79.09 36.79 78.49 36.55 77.89 36.19 77.53 35.71 77.17 35.11 77.05 34.39 77.05 33.79 77.17 33.19 77.53 32.59 77.89 32.11 78.49 31.63 79.09 31.51 79.69 31.39 80.41 31.51 81.01 31.63 81.61 32.11 81.97 32.59 82.33 33.19 82.45 33.79 82.45 34.39"/><polygon points="77.53 36.43 77.77 36.91 78.01 37.51 78.01 37.99 77.89 38.59 77.65 39.07 77.29 39.55 76.81 39.79 76.21 39.91 75.73 39.91 75.13 39.79 74.65 39.55 74.29 39.07 74.05 38.59 73.93 37.99 73.93 37.51 74.17 36.91 74.41 36.43 74.89 36.07 75.37 35.83 75.97 35.83 76.57 35.83 77.05 36.07 77.53 36.43"/><polygon points="74.89 34.39 74.77 35.11 74.41 35.71 74.05 36.19 73.45 36.55 72.85 36.79 72.25 36.91 71.53 36.79 70.93 36.55 70.33 36.19 69.97 35.71 69.61 35.11 69.49 34.39 69.49 33.79 69.61 33.19 69.97 32.59 70.33 32.11 70.93 31.63 71.53 31.51 72.25 31.39 72.85 31.51 73.45 31.63 74.05 32.11 74.41 32.59 74.77 33.19 74.89 33.79 74.89 34.39"/><polygon points="69.97 36.43 70.33 36.91 70.45 37.51 70.57 37.99 70.45 38.59 70.09 39.07 69.73 39.55 69.25 39.79 68.77 39.91 68.17 39.91 67.57 39.79 67.09 39.55 66.73 39.07 66.49 38.59 66.37 37.99 66.37 37.51 66.61 36.91 66.85 36.43 67.33 36.07 67.93 35.83 68.41 35.83 69.01 35.83 69.49 36.07 69.97 36.43"/><polygon points="67.93 43.39 68.41 43.39 69.01 43.39 69.49 43.63 69.97 43.99 70.33 44.47 70.45 44.95 70.57 45.55 70.45 46.15 70.09 46.63 69.73 47.11 69.25 47.35 68.77 47.47 68.17 47.47 67.57 47.35 67.09 47.11 66.73 46.63 66.49 46.15 66.37 45.55 66.37 44.95 66.61 44.47 66.85 43.99 67.33 43.63 67.93 43.39"/><polygon points="67.93 50.95 68.41 50.95 69.01 50.95 69.49 51.19 69.97 51.55 70.33 52.03 70.45 52.51 70.57 53.11 70.45 53.71 70.09 54.19 69.73 54.55 69.25 54.91 68.77 55.03 68.17 55.03 67.57 54.91 67.09 54.55 66.73 54.19 66.49 53.71 66.37 53.11 66.37 52.51 66.61 52.03 66.85 51.55 67.33 51.19 67.93 50.95"/><polygon points="69.49 56.47 69.61 55.75 69.97 55.15 70.33 54.67 70.93 54.31 71.53 54.07 72.25 53.95 72.85 54.07 73.45 54.31 74.05 54.67 74.41 55.15 74.77 55.75 74.89 56.47 74.89 57.07 74.77 57.67 74.41 58.27 74.05 58.75 73.45 59.23 72.85 59.47 72.25 59.47 71.53 59.47 70.93 59.23 70.33 58.75 69.97 58.27 69.61 57.67 69.49 57.07 69.49 56.47"/><polygon points="74.65 54.55 74.29 54.19 74.05 53.71 73.93 53.11 73.93 52.51 74.17 52.03 74.41 51.55 74.89 51.19 75.37 50.95 75.97 50.95 76.57 50.95 77.05 51.19 77.53 51.55 77.77 52.03 78.01 52.51 78.01 53.11 77.89 53.71 77.65 54.19 77.29 54.55 76.81 54.91 76.21 55.03 75.73 55.03 75.13 54.91 74.65 54.55"/><polygon points="77.05 56.47 77.17 55.75 77.53 55.15 77.89 54.67 78.49 54.31 79.09 54.07 79.69 53.95 80.41 54.07 81.01 54.31 81.61 54.67 81.97 55.15 82.33 55.75 82.45 56.47 82.45 57.07 82.33 57.67 81.97 58.27 81.61 58.75 81.01 59.23 80.41 59.47 79.69 59.47 79.09 59.47 78.49 59.23 77.89 58.75 77.53 58.27 77.17 57.67 77.05 57.07 77.05 56.47"/><polygon points="82.21 54.55 81.85 54.19 81.61 53.71 81.49 53.11 81.49 52.51 81.61 52.03 81.97 51.55 82.45 51.19 82.93 50.95 83.53 50.95 84.13 50.95 84.61 51.19 85.09 51.55 85.33 52.03 85.57 52.51 85.57 53.11 85.45 53.71 85.21 54.19 84.85 54.55 84.37 54.91 83.77 55.03 83.29 55.03 82.69 54.91 82.21 54.55"/><polygon points="84.61 56.47 84.73 55.75 85.09 55.15 85.45 54.67 86.05 54.31 86.65 54.07 87.25 53.95 87.97 54.07 88.57 54.31 89.17 54.67 89.53 55.15 89.89 55.75 90.01 56.47 90.01 57.07 89.89 57.67 89.53 58.27 89.17 58.75 88.57 59.23 87.97 59.47 87.25 59.47 86.65 59.47 86.05 59.23 85.45 58.75 85.09 58.27 84.73 57.67 84.61 57.07 84.61 56.47"/><polygon points="89.77 54.55 89.41 54.19 89.05 53.71 88.93 53.11 89.05 52.51 89.17 52.03 89.53 51.55 90.01 51.19 90.49 50.95 91.09 50.95 91.57 50.95 92.17 51.19 92.53 51.55 92.89 52.03 93.13 52.51 93.13 53.11 93.01 53.71 92.77 54.19 92.41 54.55 91.93 54.91 91.33 55.03 90.73 55.03 90.25 54.91 89.77 54.55"/><polygon points="92.05 56.47 92.29 55.75 92.53 55.15 93.01 54.67 93.61 54.31 94.21 54.07 94.81 53.95 95.53 54.07 96.13 54.31 96.61 54.67 97.09 55.15 97.45 55.75 97.57 56.47 97.57 57.07 97.45 57.67 97.09 58.27 96.61 58.75 96.13 59.23 95.53 59.47 94.81 59.47 94.21 59.47 93.61 59.23 93.01 58.75 92.53 58.27 92.29 57.67 92.05 57.07 92.05 56.47"/><polygon points="97.33 54.55 96.85 54.19 96.61 53.71 96.49 53.11 96.61 52.51 96.73 52.03 97.09 51.55 97.57 51.19 98.05 50.95 98.65 50.95 99.13 50.95 99.73 51.19 100.09 51.55 100.45 52.03 100.69 52.51 100.69 53.11 100.57 53.71 100.33 54.19 99.97 54.55 99.49 54.91 98.89 55.03 98.29 55.03 97.81 54.91 97.33 54.55"/><polygon points="98.89 47.47 98.29 47.47 97.81 47.35 97.33 47.11 96.85 46.63 96.61 46.15 96.49 45.55 96.61 44.95 96.73 44.47 97.09 43.99 97.57 43.63 98.05 43.39 98.65 43.39 99.13 43.39 99.73 43.63 100.09 43.99 100.45 44.47 100.69 44.95 100.69 45.55 100.57 46.15 100.33 46.63 99.97 47.11 99.49 47.35 98.89 47.47"/><polygon points="98.89 39.91 98.29 39.91 97.81 39.79 97.33 39.55 96.85 39.07 96.61 38.59 96.49 37.99 96.61 37.51 96.73 36.91 97.09 36.43 97.57 36.07 98.05 35.83 98.65 35.83 99.13 35.83 99.73 36.07 100.09 36.43 100.45 36.91 100.69 37.51 100.69 37.99 100.57 38.59 100.33 39.07 99.97 39.55 99.49 39.79 98.89 39.91"/><polygon points="92.05 26.23 92.29 25.63 92.53 25.03 93.01 24.55 93.61 24.19 94.21 23.95 94.81 23.83 95.53 23.95 96.13 24.19 96.61 24.55 97.09 25.03 97.45 25.63 97.57 26.23 97.57 26.95 97.45 27.55 97.09 28.15 96.61 28.63 96.13 28.99 95.53 29.23 94.81 29.35 94.21 29.23 93.61 28.99 93.01 28.63 92.53 28.15 92.29 27.55 92.05 26.95 92.05 26.23"/><polygon points="91.09 28.27 91.57 28.39 92.17 28.51 92.53 28.87 92.89 29.35 93.13 29.95 93.13 30.43 93.01 31.03 92.77 31.51 92.41 31.99 91.93 32.23 91.33 32.47 90.73 32.47 90.25 32.23 89.77 31.99 89.41 31.51 89.05 31.03 88.93 30.43 89.05 29.95 89.17 29.35 89.53 28.87 90.01 28.51 90.49 28.39 91.09 28.27"/><polygon points="84.61 26.23 84.73 25.63 85.09 25.03 85.45 24.55 86.05 24.19 86.65 23.95 87.25 23.83 87.97 23.95 88.57 24.19 89.17 24.55 89.53 25.03 89.89 25.63 90.01 26.23 90.01 26.95 89.89 27.55 89.53 28.15 89.17 28.63 88.57 28.99 87.97 29.23 87.25 29.35 86.65 29.23 86.05 28.99 85.45 28.63 85.09 28.15 84.73 27.55 84.61 26.95 84.61 26.23"/><polygon points="82.93 28.39 83.53 28.27 84.13 28.39 84.61 28.51 85.09 28.87 85.33 29.35 85.57 29.95 85.57 30.43 85.45 31.03 85.21 31.51 84.85 31.99 84.37 32.23 83.77 32.47 83.29 32.47 82.69 32.23 82.21 31.99 81.85 31.51 81.61 31.03 81.49 30.43 81.49 29.95 81.61 29.35 81.97 28.87 82.45 28.51 82.93 28.39"/><polygon points="77.05 26.23 77.17 25.63 77.53 25.03 77.89 24.55 78.49 24.19 79.09 23.95 79.69 23.83 80.41 23.95 81.01 24.19 81.61 24.55 81.97 25.03 82.33 25.63 82.45 26.23 82.45 26.95 82.33 27.55 81.97 28.15 81.61 28.63 81.01 28.99 80.41 29.23 79.69 29.35 79.09 29.23 78.49 28.99 77.89 28.63 77.53 28.15 77.17 27.55 77.05 26.95 77.05 26.23"/><polygon points="75.37 28.39 75.97 28.27 76.57 28.39 77.05 28.51 77.53 28.87 77.77 29.35 78.01 29.95 78.01 30.43 77.89 31.03 77.65 31.51 77.29 31.99 76.81 32.23 76.21 32.47 75.73 32.47 75.13 32.23 74.65 31.99 74.29 31.51 74.05 31.03 73.93 30.43 73.93 29.95 74.17 29.35 74.41 28.87 74.89 28.51 75.37 28.39"/><polygon points="69.49 26.23 69.61 25.63 69.97 25.03 70.33 24.55 70.93 24.19 71.53 23.95 72.25 23.83 72.85 23.95 73.45 24.19 74.05 24.55 74.41 25.03 74.77 25.63 74.89 26.23 74.89 26.95 74.77 27.55 74.41 28.15 74.05 28.63 73.45 28.99 72.85 29.23 72.25 29.35 71.53 29.23 70.93 28.99 70.33 28.63 69.97 28.15 69.61 27.55 69.49 26.95 69.49 26.23"/><polygon points="68.41 28.27 69.01 28.39 69.49 28.51 69.97 28.87 70.33 29.35 70.45 29.95 70.57 30.43 70.45 31.03 70.09 31.51 69.73 31.99 69.25 32.23 68.77 32.47 68.17 32.47 67.57 32.23 67.09 31.99 66.73 31.51 66.49 31.03 66.37 30.43 66.37 29.95 66.61 29.35 66.85 28.87 67.33 28.51 67.93 28.39 68.41 28.27"/><polygon points="61.93 26.23 62.05 25.63 62.41 25.03 62.89 24.55 63.37 24.19 63.97 23.95 64.69 23.83 65.29 23.95 65.89 24.19 66.49 24.55 66.97 25.03 67.21 25.63 67.33 26.23 67.33 26.95 67.21 27.55 66.97 28.15 66.49 28.63 65.89 28.99 65.29 29.23 64.69 29.35 63.97 29.23 63.37 28.99 62.89 28.63 62.41 28.15 62.05 27.55 61.93 26.95 61.93 26.23"/><polygon points="61.93 33.79 62.05 33.19 62.41 32.59 62.89 32.11 63.37 31.63 63.97 31.51 64.69 31.39 65.29 31.51 65.89 31.63 66.49 32.11 66.97 32.59 67.21 33.19 67.33 33.79 67.33 34.39 67.21 35.11 66.97 35.71 66.49 36.19 65.89 36.55 65.29 36.79 64.69 36.91 63.97 36.79 63.37 36.55 62.89 36.19 62.41 35.71 62.05 35.11 61.93 34.39 61.93 33.79"/><polygon points="61.93 41.35 62.05 40.63 62.41 40.15 62.89 39.55 63.37 39.19 63.97 38.95 64.69 38.95 65.29 38.95 65.89 39.19 66.49 39.55 66.97 40.15 67.21 40.63 67.33 41.35 67.33 41.95 67.21 42.67 66.97 43.27 66.49 43.75 65.89 44.11 65.29 44.35 64.69 44.35 63.97 44.35 63.37 44.11 62.89 43.75 62.41 43.27 62.05 42.67 61.93 41.95 61.93 41.35"/><polygon points="61.93 48.91 62.05 48.19 62.41 47.59 62.89 47.11 63.37 46.75 63.97 46.51 64.69 46.51 65.29 46.51 65.89 46.75 66.49 47.11 66.97 47.59 67.21 48.19 67.33 48.91 67.33 49.51 67.21 50.23 66.97 50.71 66.49 51.31 65.89 51.67 65.29 51.91 64.69 51.91 63.97 51.91 63.37 51.67 62.89 51.31 62.41 50.71 62.05 50.23 61.93 49.51 61.93 48.91"/><polygon points="61.93 56.47 62.05 55.75 62.41 55.15 62.89 54.67 63.37 54.31 63.97 54.07 64.69 53.95 65.29 54.07 65.89 54.31 66.49 54.67 66.97 55.15 67.21 55.75 67.33 56.47 67.33 57.07 67.21 57.67 66.97 58.27 66.49 58.75 65.89 59.23 65.29 59.47 64.69 59.47 63.97 59.47 63.37 59.23 62.89 58.75 62.41 58.27 62.05 57.67 61.93 57.07 61.93 56.47"/><polygon points="67.33 64.63 67.21 65.23 66.97 65.83 66.49 66.31 65.89 66.67 65.29 66.91 64.69 67.03 63.97 66.91 63.37 66.67 62.89 66.31 62.41 65.83 62.05 65.23 61.93 64.63 61.93 63.91 62.05 63.31 62.41 62.71 62.89 62.23 63.37 61.87 63.97 61.63 64.69 61.51 65.29 61.63 65.89 61.87 66.49 62.23 66.97 62.71 67.21 63.31 67.33 63.91 67.33 64.63"/><polygon points="68.77 62.59 68.17 62.59 67.57 62.47 67.09 62.11 66.73 61.75 66.49 61.27 66.37 60.67 66.37 60.07 66.61 59.59 66.85 59.11 67.33 58.75 67.93 58.51 68.41 58.39 69.01 58.51 69.49 58.75 69.97 59.11 70.33 59.59 70.45 60.07 70.57 60.67 70.45 61.27 70.09 61.75 69.73 62.11 69.25 62.47 68.77 62.59"/><polygon points="74.89 64.63 74.77 65.23 74.41 65.83 74.05 66.31 73.45 66.67 72.85 66.91 72.25 67.03 71.53 66.91 70.93 66.67 70.33 66.31 69.97 65.83 69.61 65.23 69.49 64.63 69.49 63.91 69.61 63.31 69.97 62.71 70.33 62.23 70.93 61.87 71.53 61.63 72.25 61.51 72.85 61.63 73.45 61.87 74.05 62.23 74.41 62.71 74.77 63.31 74.89 63.91 74.89 64.63"/><polygon points="76.21 62.59 75.73 62.59 75.13 62.47 74.65 62.11 74.29 61.75 74.05 61.27 73.93 60.67 73.93 60.07 74.17 59.59 74.41 59.11 74.89 58.75 75.37 58.51 75.97 58.39 76.57 58.51 77.05 58.75 77.53 59.11 77.77 59.59 78.01 60.07 78.01 60.67 77.89 61.27 77.65 61.75 77.29 62.11 76.81 62.47 76.21 62.59"/><polygon points="82.45 64.63 82.33 65.23 81.97 65.83 81.61 66.31 81.01 66.67 80.41 66.91 79.69 67.03 79.09 66.91 78.49 66.67 77.89 66.31 77.53 65.83 77.17 65.23 77.05 64.63 77.05 63.91 77.17 63.31 77.53 62.71 77.89 62.23 78.49 61.87 79.09 61.63 79.69 61.51 80.41 61.63 81.01 61.87 81.61 62.23 81.97 62.71 82.33 63.31 82.45 63.91 82.45 64.63"/><polygon points="83.77 62.59 83.29 62.59 82.69 62.47 82.21 62.11 81.85 61.75 81.61 61.27 81.49 60.67 81.49 60.07 81.61 59.59 81.97 59.11 82.45 58.75 82.93 58.51 83.53 58.39 84.13 58.51 84.61 58.75 85.09 59.11 85.33 59.59 85.57 60.07 85.57 60.67 85.45 61.27 85.21 61.75 84.85 62.11 84.37 62.47 83.77 62.59"/><polygon points="90.01 64.63 89.89 65.23 89.53 65.83 89.17 66.31 88.57 66.67 87.97 66.91 87.25 67.03 86.65 66.91 86.05 66.67 85.45 66.31 85.09 65.83 84.73 65.23 84.61 64.63 84.61 63.91 84.73 63.31 85.09 62.71 85.45 62.23 86.05 61.87 86.65 61.63 87.25 61.51 87.97 61.63 88.57 61.87 89.17 62.23 89.53 62.71 89.89 63.31 90.01 63.91 90.01 64.63"/><polygon points="91.33 62.59 90.73 62.59 90.25 62.47 89.77 62.11 89.41 61.75 89.05 61.27 88.93 60.67 89.05 60.07 89.17 59.59 89.53 59.11 90.01 58.75 90.49 58.51 91.09 58.39 91.57 58.51 92.17 58.75 92.53 59.11 92.89 59.59 93.13 60.07 93.13 60.67 93.01 61.27 92.77 61.75 92.41 62.11 91.93 62.47 91.33 62.59"/><polygon points="97.57 64.63 97.45 65.23 97.09 65.83 96.61 66.31 96.13 66.67 95.53 66.91 94.81 67.03 94.21 66.91 93.61 66.67 93.01 66.31 92.53 65.83 92.29 65.23 92.05 64.63 92.05 63.91 92.29 63.31 92.53 62.71 93.01 62.23 93.61 61.87 94.21 61.63 94.81 61.51 95.53 61.63 96.13 61.87 96.61 62.23 97.09 62.71 97.45 63.31 97.57 63.91 97.57 64.63"/><polygon points="98.89 62.59 98.29 62.59 97.81 62.47 97.33 62.11 96.85 61.75 96.61 61.27 96.49 60.67 96.61 60.07 96.73 59.59 97.09 59.11 97.57 58.75 98.05 58.51 98.65 58.39 99.13 58.51 99.73 58.75 100.09 59.11 100.45 59.59 100.69 60.07 100.69 60.67 100.57 61.27 100.33 61.75 99.97 62.11 99.49 62.47 98.89 62.59"/><polygon points="105.13 64.63 104.89 65.23 104.65 65.83 104.17 66.31 103.69 66.67 103.09 66.91 102.37 67.03 101.77 66.91 101.05 66.67 100.57 66.31 100.09 65.83 99.85 65.23 99.61 64.63 99.61 63.91 99.85 63.31 100.09 62.71 100.57 62.23 101.05 61.87 101.77 61.63 102.37 61.51 103.09 61.63 103.69 61.87 104.17 62.23 104.65 62.71 104.89 63.31 105.13 63.91 105.13 64.63"/><polygon points="105.13 57.07 104.89 57.67 104.65 58.27 104.17 58.75 103.69 59.23 103.09 59.47 102.37 59.47 101.77 59.47 101.05 59.23 100.57 58.75 100.09 58.27 99.85 57.67 99.61 57.07 99.61 56.47 99.85 55.75 100.09 55.15 100.57 54.67 101.05 54.31 101.77 54.07 102.37 53.95 103.09 54.07 103.69 54.31 104.17 54.67 104.65 55.15 104.89 55.75 105.13 56.47 105.13 57.07"/><polygon points="105.13 49.51 104.89 50.23 104.65 50.71 104.17 51.31 103.69 51.67 103.09 51.91 102.37 51.91 101.77 51.91 101.05 51.67 100.57 51.31 100.09 50.71 99.85 50.23 99.61 49.51 99.61 48.91 99.85 48.19 100.09 47.59 100.57 47.11 101.05 46.75 101.77 46.51 102.37 46.51 103.09 46.51 103.69 46.75 104.17 47.11 104.65 47.59 104.89 48.19 105.13 48.91 105.13 49.51"/><polygon points="105.13 41.95 104.89 42.67 104.65 43.27 104.17 43.75 103.69 44.11 103.09 44.35 102.37 44.35 101.77 44.35 101.05 44.11 100.57 43.75 100.09 43.27 99.85 42.67 99.61 41.95 99.61 41.35 99.85 40.63 100.09 40.15 100.57 39.55 101.05 39.19 101.77 38.95 102.37 38.95 103.09 38.95 103.69 39.19 104.17 39.55 104.65 40.15 104.89 40.63 105.13 41.35 105.13 41.95"/><polygon points="105.13 34.39 104.89 35.11 104.65 35.71 104.17 36.19 103.69 36.55 103.09 36.79 102.37 36.91 101.77 36.79 101.05 36.55 100.57 36.19 100.09 35.71 99.85 35.11 99.61 34.39 99.61 33.79 99.85 33.19 100.09 32.59 100.57 32.11 101.05 31.63 101.77 31.51 102.37 31.39 103.09 31.51 103.69 31.63 104.17 32.11 104.65 32.59 104.89 33.19 105.13 33.79 105.13 34.39"/><polygon points="105.13 26.95 104.89 27.55 104.65 28.15 104.17 28.63 103.69 28.99 103.09 29.23 102.37 29.35 101.77 29.23 101.05 28.99 100.57 28.63 100.09 28.15 99.85 27.55 99.61 26.95 99.61 26.23 99.85 25.63 100.09 25.03 100.57 24.55 101.05 24.19 101.77 23.95 102.37 23.83 103.09 23.95 103.69 24.19 104.17 24.55 104.65 25.03 104.89 25.63 105.13 26.23 105.13 26.95"/><line class="e82c1310-c0c1-4ef6-ac39-a7967ade8700" x1="178.93" y1="126.91" x2="178.93" y2="126.67"/><path class="f1daedbc-d961-4c2a-8b04-1d011e25847d" d="M75.75,85.29H63.62a3,3,0,0,0-3,3v12.13a3,3,0,0,0,3,3H75.75a3,3,0,0,0,3-3V88.32A3,3,0,0,0,75.75,85.29Zm.31,9.22a.51.51,0,0,1-.72,0,.52.52,0,0,1-.14-.32l-1.37-1.37v-3.1a.25.25,0,0,0-.25-.25h-.51a.25.25,0,0,0-.25.25v2.13L72.06,91,69.69,88.7a.25.25,0,0,0-.36,0h0L64,94.06a.24.24,0,0,0,0,.35h0l.35.35a.26.26,0,0,0,.36,0h0l4.11-4.11a1,1,0,0,1,1.43,0l4.11,4.11a1,1,0,0,1,0,1.44l-.35.35a1,1,0,0,1-1.44,0L69.69,93.7a.26.26,0,0,0-.36,0h0L66.5,96.56a.25.25,0,0,0,0,.36h0l.36.36a.25.25,0,0,0,.35,0h0l1.61-1.61a1,1,0,0,1,1.43,0l1.61,1.61a1,1,0,0,1,0,1.43l-1.73,1.74a.51.51,0,0,1-.15.33.5.5,0,0,1-.71,0h0a.51.51,0,0,1,.32-.87l1.73-1.73a.26.26,0,0,0,0-.36h0l-1.63-1.61a.26.26,0,0,0-.36,0h0l-1.58,1.6a1,1,0,0,1-1.43,0L66,97.46A1,1,0,0,1,66,96l2.86-2.85a1,1,0,0,1,1.43,0L73.11,96a.26.26,0,0,0,.36,0h0l.36-.35a.26.26,0,0,0,0-.36h0L69.69,91.2a.25.25,0,0,0-.36,0h0l-4.08,4.11a1,1,0,0,1-1.43,0L63.46,95a1,1,0,0,1,0-1.44l5.36-5.36a1,1,0,0,1,1.43,0L72.06,90v-.26a1,1,0,0,1,1-1h.53a1,1,0,0,1,1,1v2.78l1.17,1.14a.5.5,0,0,1,.47.54.47.47,0,0,1-.14.32Z"/><path class="f1daedbc-d961-4c2a-8b04-1d011e25847d" d="M147,88.32h1.82v.57h-.59v1.7h-.66v-1.7H147Zm2,0h.76l.52,1.21.48-1.21h.76v2.27H151V89.31l-.44,1.07h-.48l-.43-1.07v1.28H149Z"/><path class="f1daedbc-d961-4c2a-8b04-1d011e25847d" d="M94,88.32v12.13h-2.7v-5H86v5H83.34V88.32H86v4.79h5.3V88.32Zm1.65,6.07a5.94,5.94,0,0,1,5.82-6.07h.35A5.94,5.94,0,0,1,108,94v.37a6,6,0,0,1-5.8,6.07h-.37a6,6,0,0,1-6.17-5.71Zm9.65.06a3.5,3.5,0,1,0-7-.33v.33a3.5,3.5,0,0,0,7,.32Zm3.79-.06a6.17,6.17,0,1,1,6.16,6.16A6.16,6.16,0,0,1,109.12,94.39Zm9.65.06a3.49,3.49,0,1,0-7-.46,3.52,3.52,0,1,0,7,.46Zm15,2.69c0,2.1-1.6,3.31-4.66,3.31h-6.07V88.32h5.77c2.91,0,4.41,1.27,4.41,3.15a2.92,2.92,0,0,1-1.52,2.67,3,3,0,0,1,2.09,3Zm-7.88-6.48V93.4h2.57c1.26,0,1.95-.46,1.95-1.38s-.69-1.36-1.95-1.36ZM131,96.81c0-1-.72-1.45-2.07-1.45h-3v2.87h3C130.28,98.23,131,97.8,131,96.81Zm3.63,2.27.89-2a6.38,6.38,0,0,0,3.72,1.23c1.52,0,2.17-.54,2.17-1.26,0-2.2-6.55-.69-6.55-5,0-2,1.51-3.66,4.74-3.66a7.48,7.48,0,0,1,3.92,1l-.81,2.08a6.17,6.17,0,0,0-3.12-.92c-1.52,0-2.14.6-2.14,1.34,0,2.16,6.55.67,6.55,5,0,2-1.56,3.64-4.78,3.64a7.8,7.8,0,0,1-4.59-1.35Z"/></svg>