<svg xmlns="http://www.w3.org/2000/svg" viewBox="0 0 81.01 39.04"><defs><style>.cls-1,.cls-2{fill:none;stroke:#feb400;stroke-miterlimit:10;}.cls-1{stroke-width:2px;}.cls-2{stroke-width:1.25px;}.cls-3{fill:#feb400;}</style></defs><title>icon_secure</title><g id="Ebene_2" data-name="Ebene 2"><g id="Content"><rect class="cls-1" x="10.71" y="14.02" width="9.92" height="9.92"/><rect class="cls-2" x="25.47" y="31.78" width="2.61" height="4.28"/><polyline class="cls-1" points="12.89 13.81 12.89 9.5 18.42 9.5 18.42 13.65"/><path class="cls-1" d="M16.14,1.08,31.28,7.37c.14,23.39-15.14,30.57-15.14,30.57S1.26,31.6,1,7.37Z"/><rect class="cls-2" x="33.18" y="31.78" width="2.61" height="4.28"/><rect class="cls-2" x="43.05" y="31.78" width="2.61" height="4.28"/><line class="cls-2" x1="30.63" y1="30.87" x2="30.63" y2="36.94"/><line class="cls-2" x1="38.21" y1="30.87" x2="38.21" y2="36.94"/><line class="cls-2" x1="40.57" y1="30.8" x2="40.57" y2="36.87"/><rect class="cls-2" x="50.78" y="31.78" width="2.61" height="4.28"/><line class="cls-2" x1="48.23" y1="30.87" x2="48.23" y2="36.94"/><rect class="cls-2" x="58.5" y="31.78" width="2.61" height="4.28"/><rect class="cls-2" x="68.37" y="31.78" width="2.61" height="4.28"/><line class="cls-2" x1="55.95" y1="30.87" x2="55.95" y2="36.94"/><line class="cls-2" x1="63.52" y1="30.87" x2="63.52" y2="36.94"/><line class="cls-2" x1="65.88" y1="30.8" x2="65.88" y2="36.87"/><path class="cls-3" d="M72.29,16.65a11.92,11.92,0,0,0,.37-2.92A12.12,12.12,0,0,0,49.54,8.64a9.32,9.32,0,0,0-11.93,6.11,11.9,11.9,0,0,0-1.34-.08,11.28,11.28,0,0,0-3.35.51c-.1.74-.23,1.45-.37,2.14a9.25,9.25,0,0,1,3.72-.79,9.6,9.6,0,0,1,1.85.19.94.94,0,0,0,1.1-.73,7.44,7.44,0,0,1,10.43-5.3.93.93,0,0,0,.75,0,1,1,0,0,0,.52-.54,10.25,10.25,0,0,1,19.27,7,.93.93,0,0,0,.11.84.92.92,0,0,0,.74.4,8.37,8.37,0,0,1,2.14,16.41v1.91a10.24,10.24,0,0,0-.89-20.08Z"/></g></g></svg>