<svg xmlns="http://www.w3.org/2000/svg" viewBox="0 0 50.22 33.13"><defs><style>.cls-1{fill:#feb400;}.cls-2{fill:none;stroke:#feb400;stroke-miterlimit:10;stroke-width:2px;}</style></defs><title>icon_powerful</title><g id="Ebene_2" data-name="Ebene 2"><g id="Content"><path class="cls-1" d="M31.34,15.54a.74.74,0,0,0-.68-.43H27.13L29.88,4.78a.74.74,0,0,0-.38-.86.73.73,0,0,0-.92.19L18.06,16.88a.73.73,0,0,0-.1.8.75.75,0,0,0,.68.43h3.53L19.41,28.44a.75.75,0,0,0,.39.86.66.66,0,0,0,.34.08.74.74,0,0,0,.58-.27L31.24,16.33A.73.73,0,0,0,31.34,15.54Zm-9.58,10,2.11-7.94a.76.76,0,0,0-.13-.65.75.75,0,0,0-.59-.29H20.23l7.31-8.88-2.11,7.93a.72.72,0,0,0,.13.65.73.73,0,0,0,.59.3h2.92Z"/><path class="cls-2" d="M49.22,2a1,1,0,0,0-1-1H2A1,1,0,0,0,1,2V31.13a1,1,0,0,0,1,1H44.4a1,1,0,0,0,1-1V21.89a1,1,0,0,1,1-1h1.82a1,1,0,0,0,1-1Z"/></g></g></svg>