<svg xmlns="http://www.w3.org/2000/svg" viewBox="0 0 80 35.24"><defs><style>.cls-1{fill:#feb400;}</style></defs><title>icon_diy</title><g id="Ebene_2" data-name="Ebene 2"><g id="Content"><g id="Circuit-technology-electronics"><path class="cls-1" d="M34.54,0H.59A.59.59,0,0,0,0,.59v34a.58.58,0,0,0,.59.58H34.54a.58.58,0,0,0,.59-.58V.59A.59.59,0,0,0,34.54,0ZM34,10.54H32a1.17,1.17,0,1,0,0,1.17H34V34H1.17V1.17H34Z"/><path class="cls-1" d="M26.35,13.47a.58.58,0,0,0,.58-.59V11.13a.58.58,0,0,0-.58-.59H25.18a.59.59,0,0,0-.59-.58V8.79A.58.58,0,0,0,24,8.2H22.25a.58.58,0,0,0-.59.59V10h-.58V8.79a.59.59,0,0,0-.59-.59H18.74a.58.58,0,0,0-.59.59V10H17V8.79a.58.58,0,0,0-.59-.59H14.64a.58.58,0,0,0-.59.59V10h-.58V8.79a.59.59,0,0,0-.59-.59H11.12a.58.58,0,0,0-.58.59V10a.59.59,0,0,0-.59.58H8.78a.58.58,0,0,0-.58.59v1.75a.58.58,0,0,0,.58.59H10v.58H8.78a.59.59,0,0,0-.58.59V16.4a.58.58,0,0,0,.58.58H10v1.17H8.78a.58.58,0,0,0-.58.59v1.75a.58.58,0,0,0,.58.59H10v.59H8.78a.58.58,0,0,0-.58.58V24a.58.58,0,0,0,.58.58H10a.59.59,0,0,0,.59.59v1.17a.58.58,0,0,0,.58.58h1.76a.59.59,0,0,0,.59-.58V25.18h.58v1.17a.58.58,0,0,0,.59.58h1.75a.58.58,0,0,0,.59-.58V25.18h1.17v1.17a.58.58,0,0,0,.59.58h1.75a.59.59,0,0,0,.59-.58V25.18h.58v1.17a.58.58,0,0,0,.59.58H24a.58.58,0,0,0,.59-.58V25.18a.59.59,0,0,0,.59-.59h1.17a.58.58,0,0,0,.58-.58V22.25a.58.58,0,0,0-.58-.58H25.18v-.59h1.17a.58.58,0,0,0,.58-.59V18.74a.58.58,0,0,0-.58-.59H25.18V17h1.17a.58.58,0,0,0,.58-.58V14.64a.59.59,0,0,0-.58-.59H25.18v-.58Zm-1.17-1.76h.58v.59h-.58ZM10,23.42H9.37v-.58H10Zm0-3.51H9.37v-.59H10Zm0-4.1H9.37v-.58H10Zm0-3.51H9.37v-.59H10ZM22.83,9.37h.59V10h-.59Zm-3.51,0h.59V10h-.59Zm-4.1,0h.59V10h-.59Zm-3.51,0h.58V10h-.58Zm.58,16.39h-.58v-.58h.58Zm3.52,0h-.59v-.58h.59Zm4.1,0h-.59v-.58h.59Zm3.51,0h-.59v-.58h.59ZM24,24H11.12V11.13H24Zm1.76-1.17v.58h-.58v-.58Zm0-3.52v.59h-.58v-.59Zm0-4.09v.58h-.58v-.58Z"/><path class="cls-1" d="M26.35,8.2H31a.59.59,0,0,0,.59-.59V5.86A.59.59,0,0,0,31,5.27H26.35a.58.58,0,0,0-.59.59V7.61A.58.58,0,0,0,26.35,8.2Zm.58-1.76h3.51V7H26.93Z"/><path class="cls-1" d="M1.76,12.88A1.76,1.76,0,1,0,4.1,11.23V5.16A1.76,1.76,0,1,0,1.86,4.09,1.72,1.72,0,0,0,2.93,5.16v6.07A1.76,1.76,0,0,0,1.76,12.88Zm1.75.59a.59.59,0,1,1,.59-.59A.58.58,0,0,1,3.51,13.47Zm0-10.54a.59.59,0,1,1-.58.59A.58.58,0,0,1,3.51,2.93Z"/><path class="cls-1" d="M8.2,29.86A1.76,1.76,0,0,0,6.55,31H5l-.9-1.34V28a1.77,1.77,0,0,0,1.07-2.24A1.76,1.76,0,1,0,2.93,28v1.86a.56.56,0,0,0,.1.33L4.2,31.94a.56.56,0,0,0,.48.26H6.55A1.75,1.75,0,1,0,8.2,29.86Zm-4.69-4.1a.59.59,0,0,1,.59.59.59.59,0,0,1-1.17,0A.59.59,0,0,1,3.51,25.76ZM8.2,32.2a.58.58,0,0,1-.59-.58.59.59,0,1,1,1.17,0A.58.58,0,0,1,8.2,32.2Z"/><path class="cls-1" d="M31.62,29.86a1.16,1.16,0,0,0-1,.59h-.83a2.36,2.36,0,0,0-2.26-1.76H22.83a2.36,2.36,0,0,0-2.26,1.76h-.83a1.17,1.17,0,0,0-1.6-.43,1.17,1.17,0,0,0,1.17,2,1.18,1.18,0,0,0,.43-.43h.83a2.36,2.36,0,0,0,2.26,1.76h4.69a2.36,2.36,0,0,0,2.26-1.76h.83a1.17,1.17,0,1,0,1-1.76Zm-4.1,2.34H22.83a1.17,1.17,0,1,1,0-2.34h4.69a1.17,1.17,0,0,1,0,2.34Z"/><path class="cls-1" d="M30.44,19.75v5.43H29.7a1.17,1.17,0,1,0,0,1.17H31a.59.59,0,0,0,.59-.59v-6a1.17,1.17,0,1,0-1.6-.43A1.24,1.24,0,0,0,30.44,19.75Z"/><path class="cls-1" d="M7,7.61H9.37A.58.58,0,0,0,10,7V2.34a.58.58,0,0,0-.58-.58H7a.58.58,0,0,0-.59.58V7A.58.58,0,0,0,7,7.61Zm.58-4.68H8.78V6.44H7.61Z"/></g><path class="cls-1" d="M79,10.84l0,0a.63.63,0,0,1-.1-.76,3.4,3.4,0,0,0-.71-4.12L74.06,1.86A3.64,3.64,0,0,0,71.5.74a3.22,3.22,0,0,0-1.56.41A.67.67,0,0,1,69.16,1a3.52,3.52,0,0,0-5,0,.52.52,0,0,0,0,.73L69,6.55l-7,7L51.62.2a.52.52,0,0,0-.93.32V24.81l-5.78,5.78a.52.52,0,0,0,0,.73l3.77,3.77a.52.52,0,0,0,.73,0l1.28-1.28v.92a.51.51,0,0,0,.52.51H77.68a.52.52,0,0,0,.41-.83L68.87,22.49a.52.52,0,1,0-.82.64l8.58,11.08H51.73V32.77l4-4v.92a.51.51,0,0,0,.51.52H67.36a.51.51,0,0,0,.41-.83l-5.5-7.12,2.87-2.87,2.91,3.77a.52.52,0,0,0,.82-.64l-3-3.86,7.58-7.58,4.79,4.79a.52.52,0,0,0,.73,0A3.56,3.56,0,0,0,79,10.84ZM51.73,2l9.48,12.26-2.87,2.87L56.68,15a.51.51,0,0,0-.92.31v4.42l-4,4V2ZM57.61,17.9l-.82.82V16.84Zm8.7,11.25H56.79V27.71L61.53,23ZM72,11,70.49,9.51a.52.52,0,0,0-.73.73l1.52,1.52-.7.7-.87-.86a.52.52,0,0,0-.73.73l.87.86-.71.71L68.28,13a.5.5,0,0,0-.73,0,.52.52,0,0,0,0,.73l.86.86-.7.7-.87-.86a.52.52,0,1,0-.73.73l.87.86-.71.71-.86-.86a.5.5,0,0,0-.73,0,.52.52,0,0,0,0,.73l.86.86-.7.7-1.52-1.51a.52.52,0,1,0-.73.73l1.51,1.52-.7.7-.86-.86a.52.52,0,0,0-.73,0,.5.5,0,0,0,0,.73l.86.86-.71.71-.86-.87a.52.52,0,0,0-.73.73l.86.87,0,0h0l-.68.68-.86-.86a.52.52,0,0,0-.73,0,.5.5,0,0,0,0,.73l.86.86-.71.71-.86-.87a.52.52,0,1,0-.73.73l.86.87-.7.7-1.52-1.52a.52.52,0,0,0-.73.73l1.52,1.52-.71.71L55.36,26a.5.5,0,0,0-.73,0,.52.52,0,0,0,0,.73l.86.86-.7.7-.87-.86a.52.52,0,0,0-.73.73l.87.86-.71.71-.86-.86a.52.52,0,0,0-.73.73l.86.86-.71.71-.86-.87a.52.52,0,0,0-.73.73l.86.87-.7.7L49,31a.52.52,0,0,0-.73.73l1.52,1.52L49,34l-3-3,5.57-5.57,5.07-5.06h0l2-2,3.61-3.61,7.41-7.42,3,3Zm6.55,3.68L65.3,1.44A2.42,2.42,0,0,1,66.66,1a2.46,2.46,0,0,1,1.77.74h0c1,1,2,0,3,0a2.61,2.61,0,0,1,1.83.81l4.08,4.08A2.39,2.39,0,0,1,78,9.56a1.65,1.65,0,0,0,.27,2l0,0A2.5,2.5,0,0,1,78.56,14.71Z"/></g></g></svg>