<svg xmlns="http://www.w3.org/2000/svg" viewBox="0 0 81.5 34.71"><defs><style>.cls-1{fill:none;stroke:#feb400;stroke-miterlimit:10;stroke-width:1.5px;}</style></defs><title>icon_flied</title><g id="Ebene_2" data-name="Ebene 2"><g id="Content"><polyline class="cls-1" points="9.36 8.47 11.5 10.46 15.64 4.43"/><polyline class="cls-1" points="9.36 26.83 11.5 28.83 15.64 22.8"/><polyline class="cls-1" points="36.56 8.47 38.71 10.46 42.85 4.43"/><polyline class="cls-1" points="36.56 26.83 38.71 28.83 42.85 22.8"/><polyline class="cls-1" points="64.67 8.47 66.82 10.46 70.96 4.43"/><polyline class="cls-1" points="64.67 26.83 66.82 28.83 70.96 22.8"/><path class="cls-1" d="M24.33,1.75a1,1,0,0,0-.94-1H1.75a1,1,0,0,0-1,1V15a1,1,0,0,0,1,1H21.46a1,1,0,0,0,1-1V11.48a1,1,0,0,1,.93-1,1,1,0,0,0,.94-1Z"/><path class="cls-1" d="M24.33,19.74a1,1,0,0,0-.94-1H1.75a1,1,0,0,0-1,1V33a1,1,0,0,0,1,1H21.46a1,1,0,0,0,1-1V29.47a1,1,0,0,1,.93-1,1,1,0,0,0,.94-1Z"/><path class="cls-1" d="M52.29,1.75a1,1,0,0,0-.93-1H29.72a1,1,0,0,0-1,1V15a1,1,0,0,0,1,1h19.7a1,1,0,0,0,1-1V11.48a1,1,0,0,1,.94-1,1,1,0,0,0,.93-1Z"/><path class="cls-1" d="M52.29,19.74a1,1,0,0,0-.93-1H29.72a1,1,0,0,0-1,1V33a1,1,0,0,0,1,1h19.7a1,1,0,0,0,1-1V29.47a1,1,0,0,1,.94-1,1,1,0,0,0,.93-1Z"/><path class="cls-1" d="M80.75,1.75a1,1,0,0,0-.94-1H58.17a1,1,0,0,0-1,1V15a1,1,0,0,0,1,1H77.88a1,1,0,0,0,1-1V11.48a1,1,0,0,1,.93-1,1,1,0,0,0,.94-1Z"/><path class="cls-1" d="M80.75,19.74a1,1,0,0,0-.94-1H58.17a1,1,0,0,0-1,1V33a1,1,0,0,0,1,1H77.88a1,1,0,0,0,1-1V29.47a1,1,0,0,1,.93-1,1,1,0,0,0,.94-1Z"/></g></g></svg>