<svg xmlns="http://www.w3.org/2000/svg" xmlns:xlink="http://www.w3.org/1999/xlink" viewBox="0 0 375 80"><defs><style>.cls-1{fill:url(#Unbenannter_Verlauf_10);}.cls-2{fill:url(#Unbenannter_Verlauf_10-2);}.cls-3{fill:url(#Unbenannter_Verlauf_10-3);}.cls-4{fill:#fff;}</style><linearGradient id="Unbenannter_Verlauf_10" x1="368.79" y1="15.15" x2="368.79" y2="21.15" gradientUnits="userSpaceOnUse"><stop offset="0" stop-color="#feb400"/><stop offset="1" stop-color="#e9a500"/></linearGradient><linearGradient id="Unbenannter_Verlauf_10-2" x1="40" y1="0" x2="40" y2="80" xlink:href="#Unbenannter_Verlauf_10"/><linearGradient id="Unbenannter_Verlauf_10-3" x1="230.5" y1="15" x2="230.5" y2="65" xlink:href="#Unbenannter_Verlauf_10"/></defs><title>logoElement 74</title><g id="Ebene_2" data-name="Ebene 2"><g id="Ebene_1-2" data-name="Ebene 1"><path class="cls-1" d="M362.57,15.15h5v1.49H366v4.51h-1.82V16.64h-1.57Zm5.56,0h2l1.42,3.19L373,15.15h2v6h-1.63V17.77l-1.18,2.79H371l-1.18-2.79v3.38h-1.64Z"/><path class="cls-2" d="M65.05,0H15A15,15,0,0,0,0,15v50.1A15,15,0,0,0,15,80h50.1a15,15,0,0,0,15-15V15A15,15,0,0,0,65.05,0Z"/><path class="cls-3" d="M144.23,15.83V64.17H133.07V44.35H111.16V64.17H100V15.83h11.16V34.89h21.91V15.83ZM152.64,40c0-14.36,11.16-25,26.39-25s26.38,10.57,26.38,25S194.18,65,179,65,152.64,54.37,152.64,40Zm41.48,0c0-9.18-6.48-15.47-15.09-15.47S163.94,30.82,163.94,40,170.42,55.47,179,55.47,194.12,49.19,194.12,40Zm16.67,0c0-14.36,11.16-25,26.39-25s26.39,10.57,26.39,25-11.23,25-26.39,25S210.79,54.37,210.79,40Zm41.48,0c0-9.18-6.48-15.47-15.09-15.47S222.09,30.82,222.09,40s6.48,15.47,15.09,15.47S252.27,49.19,252.27,40Zm63.94,11c0,8.36-6.62,13.19-19.3,13.19H272V15.83h23.57c12,0,18.25,5,18.25,12.57A11.62,11.62,0,0,1,307.39,39C312.76,40.76,316.21,44.9,316.21,51ZM283.07,24.25v11.4h11.09c5.44,0,8.4-1.93,8.4-5.73s-3-5.67-8.4-5.67ZM305,49.81c0-4.08-3.11-6-8.89-6h-13v12h13C301.87,55.75,305,54,305,49.81Zm15.91,9.6L324.68,51a28.34,28.34,0,0,0,15.92,5c6.61,0,9.3-2.21,9.3-5.18,0-9-28-2.83-28-20.78,0-8.22,6.61-15.06,20.32-15.06,6.06,0,12.26,1.45,16.74,4.28l-3.44,8.5A27.17,27.17,0,0,0,342.11,24C335.5,24,333,26.46,333,29.5c0,8.91,28,2.77,28,20.51,0,8.08-6.68,15-20.46,15C332.88,65,325.16,62.72,320.89,59.41Z"/><path class="cls-4" d="M16.67,43.94a3.93,3.93,0,0,0,5.72-.13l9.49-9.22c2.39-2.33,4.8-4.65,7.18-7,.87-.85,1.56-.79,2.44.08C46.63,32.78,51.82,37.84,57,42.93c1.47,1.46,1.45,1.68,0,3.18-1.76,1.77-1.93,1.79-3.41.36L43.05,36.32c-2.23-2.14-4.3-2.13-6.5,0q-5.17,5.15-10.33,10.32c-2.35,2.34-2.34,4.43,0,6.81.46.47.92,1,1.42,1.37a4,4,0,0,0,5.84-.25c1.82-1.76,3.68-3.49,5.49-5.25.69-.67,1.37-.87,2.11-.14L46.6,54.7a1,1,0,0,1,0,1.71c-2.3,2-4,4.75-6.87,6.12A2,2,0,0,0,38.66,65a2,2,0,0,0,1.82,1.59,1.82,1.82,0,0,0,2.08-1.2,8.22,8.22,0,0,1,2.19-2.85c1.4-1.41,2.84-2.76,4.19-4.21a3.86,3.86,0,0,0,0-5.59c-2-2-4-3.92-6-5.82a4,4,0,0,0-5.84.13c-1.83,1.75-3.68,3.47-5.48,5.26a1.46,1.46,0,0,1-2.45,0,12.68,12.68,0,0,0-1-1c-.88-.82-.88-1.55,0-2.43q5.16-5.06,10.22-10.2c.94-.95,1.68-1,2.68-.07,3.17,3.14,6.42,6.19,9.6,9.32,3.64,3.59,5.06,3.61,8.67,0,2.32-2.33,2.36-4.37,0-6.67-3.53-3.49-7.1-6.94-10.65-10.42C46.88,28.9,45,27,43.08,25.1a3.77,3.77,0,0,0-5.67,0c-1,.9-2,1.76-2.91,2.68C30,32.2,25.65,36.73,21,41c-1.48,1.37-1.7,1.41-3.09,0-.22-.21-.41-.45-.65-.64-1-.85-.91-1.59,0-2.5Q27.94,27.34,38.5,16.72a1.61,1.61,0,0,1,2.68,0c3.21,3.1,6.47,6.14,9.72,9.19.34.32.62,1,1.16.76s.23-.92.24-1.41c0-1.47,0-2.94.05-4.41.09-1.81,1.47-1.58,2.69-1.61s2.13.25,2.13,1.72c0,1.62,0,3.24,0,4.86h0c0,1.22.08,2.44,0,3.65a5.54,5.54,0,0,0,1.93,4.71c1.56,1.48,3.34,2.79,4.16,5a1.74,1.74,0,0,0,2.07.92,2,2,0,0,0,1.76-1.67,1.82,1.82,0,0,0-.94-2.21c-2.13-.87-3.32-2.77-5-4.17a3.05,3.05,0,0,1-1-2.55c0-2.54,0-5.07,0-7.61,0-4.23-1.49-5.67-5.72-5.56a15.93,15.93,0,0,0-1.81.21A3.36,3.36,0,0,0,49.68,19c-.36,1.34-.82.94-1.48.3-1.65-1.58-3.33-3.12-5-4.71-2.39-2.31-4.46-2.3-6.84.07C29.72,21.3,23.14,28.06,16.34,34.58,12,38.76,12.9,40.55,16.67,43.94Z"/></g></g></svg>